<svg width="260" height="130" fill="none" xmlns="http://www.w3.org/2000/svg"><path d="M.275 108.532h1.5v20.936h-1.5v-20.936zm11.611 0h8.144c2.137 0 4.028.449 5.675 1.346 1.666.897 2.96 2.143 3.88 3.738.922 1.576 1.382 3.37 1.382 5.384 0 2.014-.46 3.818-1.382 5.413-.92 1.576-2.215 2.812-3.88 3.709-1.647.897-3.538 1.346-5.675 1.346h-8.144v-20.936zm8.027 19.56c1.9 0 3.577-.379 5.027-1.136 1.45-.778 2.568-1.855 3.352-3.23.784-1.376 1.176-2.951 1.176-4.726s-.392-3.35-1.176-4.726c-.784-1.375-1.901-2.442-3.352-3.2-1.45-.777-3.126-1.166-5.027-1.166h-6.527v18.184h6.527zm33.404 0v1.376h-14.2v-20.936h13.759v1.376h-12.26v8.255h10.966v1.345H40.616v8.584h12.7zm21.137-4.516H62.517l-2.616 5.892h-1.617l9.466-20.936h1.5l9.467 20.936h-1.616l-2.647-5.892zm-.558-1.286l-5.41-12.083-5.381 12.083h10.79zm11.498-13.758h1.499v19.56h11.848v1.376H85.394v-20.936zm30.629 0h1.499v19.56h11.849v1.376h-13.348v-20.936zm20.138 0h1.499v20.936h-1.499v-20.936zm23.841 10.139c1.471.279 2.588.867 3.353 1.765.783.897 1.175 2.063 1.175 3.499 0 1.774-.637 3.14-1.911 4.097-1.274.958-3.165 1.436-5.674 1.436h-9.173v-20.936h8.585c2.234 0 3.969.469 5.204 1.406 1.254.917 1.882 2.233 1.882 3.948 0 1.196-.314 2.203-.941 3.02-.608.818-1.441 1.406-2.5 1.765zm-10.731-8.823v8.345h7.027c1.804 0 3.186-.35 4.145-1.047.981-.718 1.471-1.765 1.471-3.141 0-1.356-.49-2.382-1.471-3.08-.959-.718-2.341-1.077-4.145-1.077h-7.027zm7.674 18.304c1.999 0 3.509-.349 4.528-1.047 1.038-.718 1.558-1.814 1.558-3.29 0-1.475-.52-2.562-1.558-3.26-1.019-.698-2.529-1.047-4.528-1.047h-7.674v8.644h7.674zm30.164 1.316l-4.91-6.999c-.725.1-1.392.15-1.999.15h-5.881v6.849h-1.499v-20.936h7.38c2.586 0 4.616.628 6.086 1.884 1.469 1.236 2.205 2.961 2.205 5.174 0 1.655-.422 3.051-1.265 4.188-.823 1.116-2.009 1.904-3.557 2.362l5.145 7.328h-1.705zm-6.909-8.195c2.195 0 3.871-.488 5.026-1.465 1.157-.997 1.735-2.403 1.735-4.218 0-1.814-.578-3.21-1.735-4.187-1.155-.997-2.831-1.495-5.026-1.495h-5.881v11.365h5.881zm29.45 2.303h-11.936l-2.617 5.892h-1.616l9.466-20.936h1.5l9.467 20.936h-1.617l-2.647-5.892zm-.558-1.286l-5.409-12.083-5.381 12.083h10.79zm25.787 7.178l-4.911-6.999c-.725.1-1.391.15-1.998.15h-5.881v6.849h-1.499v-20.936h7.38c2.587 0 4.615.628 6.085 1.884 1.47 1.236 2.206 2.961 2.206 5.174 0 1.655-.422 3.051-1.265 4.188-.823 1.116-2.008 1.904-3.557 2.362l5.145 7.328h-1.705zm-6.909-8.195c2.195 0 3.871-.488 5.027-1.465 1.157-.997 1.735-2.403 1.735-4.218 0-1.814-.578-3.21-1.735-4.187-1.156-.997-2.832-1.495-5.027-1.495h-5.881v11.365h5.881zm22.784.987v7.208h-1.499v-7.208l-8.291-13.728h1.646l7.439 12.322 7.438-12.322h1.558l-8.291 13.728z" fill="#000"/><path d="M94.066 34.89c-4.474-5.222-7.54-11.062-9.236-17.557 1.516 1.285 2.995 2.647 4.584 3.867 5.902 4.535 12.613 7.415 19.78 9.3 4.171 1.098 8.416 1.758 12.725 2.068 3.938.281 7.871.288 11.796-.048 9.352-.797 18.24-3.224 26.441-7.84 3.369-1.897 6.468-4.187 9.214-6.921.172-.17.35-.331.634-.6-1.725 6.58-4.712 12.346-9.047 17.455 7.622 5.142 11.729 12.148 11.572 21.355-.115 6.69-2.785 12.316-7.609 16.952-9.978 9.596-28.139 9.177-37.248-4.418-4.326 6.187-10.155 10-17.744 10.832-7.606.833-14.266-1.414-19.752-6.707-5.588-5.384-8.016-12.096-7.249-19.736.77-7.644 4.607-13.635 11.139-18.002zm13.113 4.114c-9.078-.06-16.75 7.426-16.443 16.891l.012.292a16.354 16.354 0 0016.429 15.462c9.364.028 16.9-7.733 16.429-17.184l-.004-.082a15.795 15.795 0 00-.449-2.96c-1.731-6.937-8.052-12.44-15.974-12.42zm41.015-.008c-9.245-.035-16.873 7.668-16.437 17.118.129 2.792 1.009 5.515 2.499 7.881 2.799 4.447 7.754 7.634 13.928 7.654 9.443.028 16.915-7.808 16.436-17.194a15.74 15.74 0 00-.449-3.018c-1.716-6.892-7.97-12.436-15.977-12.44z" fill="#111"/><path d="M95.626 10.258c1.348-.44 2.56-.835 3.773-1.233 8.544-2.81 17.084-5.624 25.636-8.415.355-.116.817-.097 1.176.021 9.631 3.141 19.255 6.303 28.878 9.463.112.036.214.102.4.192-2.842 1.09-5.607 2.152-8.373 3.21-7.034 2.689-14.066 5.38-21.109 8.044-.315.118-.765.054-1.099-.071-3.897-1.469-7.782-2.969-11.669-4.456l-16.556-6.337c-.302-.118-.607-.241-1.057-.418z" fill="#111"/><path d="M142.259 17.713v11.008c-11.165 2.27-22.254 1.994-33.323-.856V17.687c1.224.466 2.391.908 3.559 1.355 4.14 1.583 8.28 3.158 12.415 4.754.481.187.888.183 1.384-.01 5.1-1.972 10.212-3.916 15.324-5.865.173-.07.359-.12.641-.208zM127.68 72.918c2.354 2.507 4.643 4.936 6.908 7.386.129.14.176.509.084.67-2.297 3.91-4.617 7.803-6.989 11.795a2747.78 2747.78 0 01-2.649-4.456c-1.418-2.389-2.842-4.773-4.238-7.174-.124-.213-.176-.653-.048-.792 2.273-2.474 4.579-4.92 6.932-7.43zm-27.023-20.441c1.615.818 2.744.8 3.569-.036.933-.946.955-1.932.071-3.538 2.582-1.346 6.384-.624 8.485 2.023 2.146 2.705 2.02 6.55-.324 9.16-2.361 2.625-6.189 3.114-9.328 1.069-2.737-1.784-3.904-5.372-2.473-8.678zm50.435-3.596l-.003.005c-.48.81-.701 1.491-.665 2.09.032.533.266 1.001.699 1.439.874.883 2.063.906 3.513.069.392.653.634 1.498.686 2.423a7.14 7.14 0 01-2.482 5.806c-2.634 2.256-6.782 2.235-9.359-.055a7.228 7.228 0 01-2.432-5.144 6.81 6.81 0 011.139-4.045c1.972-2.952 5.805-4.078 8.904-2.588z" fill="#111"/><path fill-rule="evenodd" clip-rule="evenodd" d="M90.736 55.895l.012.298a16.354 16.354 0 0016.429 15.46c9.364.03 16.901-7.731 16.429-17.183l-.004-.087.004.082c.471 9.451-7.065 17.212-16.429 17.183a16.354 16.354 0 01-16.441-15.753zm43.52 8.1c2.799 4.45 7.753 7.64 13.93 7.658 9.442.03 16.915-7.806 16.436-17.193a15.789 15.789 0 00-.002-.005c.479 9.386-6.993 17.222-16.436 17.194-6.174-.02-11.129-3.207-13.928-7.654zm7.932-12.52c1.974-2.951 5.803-4.075 8.901-2.589l.003-.005c-3.099-1.49-6.932-.364-8.904 2.588a6.81 6.81 0 00-1.139 4.045 6.823 6.823 0 011.139-4.04zm13.145 3.872a5.84 5.84 0 00-.011-.44c-.052-.925-.294-1.77-.686-2.423-1.45.837-2.639.813-3.513-.069-.433-.438-.667-.906-.699-1.438.031.535.264 1.005.699 1.444.874.885 2.063.908 3.514.068.452.755.704 1.765.696 2.858z" fill="#111"/></svg>