<svg width="9" height="7" fill="none" xmlns="http://www.w3.org/2000/svg"><mask id="a" fill="#fff"><path d="M0 .5h9v6H0v-6z"/></mask><g clip-path="url(#paint0_diamond_4369_12051_clip_path)" data-figma-skip-parse="true" mask="url(#a)"><path d="M0 0h2555.56v2166.67H0zm0 0h2555.56v-2166.67H0zm0 0h-2555.56v2166.67H0zm0 0h-2555.56v-2166.67H0z" transform="matrix(.0045 0 0 .006 4.5 .5)" fill="url(#paint0_diamond_4369_12051)" shape-rendering="crispEdges"/></g><path d="M0 .5v-7h-3v7h3zm9 0h3v-7H9v7zm-9 0v7h9v-14H0v7zm9 0H6v6h6v-6H9zm-9 6h3v-6h-6v6h3z" data-figma-gradient-fill="{&quot;type&quot;:&quot;GRADIENT_DIAMOND&quot;,&quot;stops&quot;:[{&quot;color&quot;:{&quot;r&quot;:0.0,&quot;g&quot;:0.0039215688593685627,&quot;b&quot;:0.066666670143604279,&quot;a&quot;:1.0},&quot;position&quot;:0.99989998340606689},{&quot;color&quot;:{&quot;r&quot;:0.0,&quot;g&quot;:0.0,&quot;b&quot;:0.0,&quot;a&quot;:0.0},&quot;position&quot;:1.0}],&quot;stopsVar&quot;:[{&quot;color&quot;:{&quot;r&quot;:0.0,&quot;g&quot;:0.0039215688593685627,&quot;b&quot;:0.066666670143604279,&quot;a&quot;:1.0},&quot;position&quot;:0.99989998340606689},{&quot;color&quot;:{&quot;r&quot;:0.0,&quot;g&quot;:0.0,&quot;b&quot;:0.0,&quot;a&quot;:0.0},&quot;position&quot;:1.0}],&quot;transform&quot;:{&quot;m00&quot;:9.0,&quot;m01&quot;:-2.0981465240765829e-06,&quot;m02&quot;:1.0490732620382914e-06,&quot;m10&quot;:1.5736100067442749e-06,&quot;m11&quot;:12.0,&quot;m12&quot;:-5.50},&quot;opacity&quot;:1.0,&quot;blendMode&quot;:&quot;NORMAL&quot;,&quot;visible&quot;:true}" mask="url(#a)"/><defs><linearGradient id="paint0_diamond_4369_12051" x1="0" y1="0" x2="500" y2="500" gradientUnits="userSpaceOnUse"><stop offset="1" stop-color="#000111"/><stop offset="1" stop-opacity="0"/></linearGradient><clipPath id="paint0_diamond_4369_12051_clip_path"><path d="M0 .5v-7h-3v7h3zm9 0h3v-7H9v7zm-9 0v7h9v-14H0v7zm9 0H6v6h6v-6H9zm-9 6h3v-6h-6v6h3z" mask="url(#path-1-inside-1_4369_12051)"/></clipPath></defs></svg>