<svg width="14" height="11" fill="none" xmlns="http://www.w3.org/2000/svg"><path d="M6.526.722c1.062 0 1.993.205 2.793.615.801.41 1.425.978 1.872 1.704.17.275.307.57.412.884h.636v.002c.44.03.79.461.79.99 0 .09-.01.178-.029.26a.952.952 0 00-.688-.293h-.495a5.934 5.934 0 01.012 1.335h.41v.003c.44.029.79.461.79.99 0 .09-.01.178-.029.26a.953.953 0 00-.688-.294h-.675c-.11.356-.256.691-.446 1.003-.447.727-1.07 1.295-1.872 1.705-.8.41-1.731.614-2.793.614H2.252V7.178h-.463c-.452-.005-.816-.447-.816-.993 0-.09.01-.177.029-.26a.928.928 0 00.677.294h.573V4.884h-.463v-.001c-.452-.005-.816-.447-.816-.993 0-.09.01-.177.029-.26a.929.929 0 00.677.295h.573V.722h4.274zM4.067 8.964h2.375c.736 0 1.37-.14 1.9-.42a2.97 2.97 0 001.243-1.173c.037-.063.072-.127.104-.193H4.067v1.786zm0-2.745h5.918a4.042 4.042 0 00-.016-1.335H4.067v1.335zm0-2.294h5.558l-.04-.074a2.97 2.97 0 00-1.243-1.174c-.53-.279-1.164-.418-1.9-.418H4.067v1.666z" fill="#2B2A29"/></svg>