<svg width="40" height="40" fill="none" xmlns="http://www.w3.org/2000/svg"><mask id="a" style="mask-type:alpha" maskUnits="userSpaceOnUse" x="0" y="0" width="40" height="40"><path fill="#D9D9D9" d="M0 0h40v40H0z"/></mask><g mask="url(#a)"><path d="M20 2.66l14.82 8.836c.354.211.611.492.772.842.161.35.242.703.242 1.06v18.161a2.51 2.51 0 01-.767 1.841 2.51 2.51 0 01-1.84.766H6.774a2.51 2.51 0 01-1.84-.766 2.51 2.51 0 01-.767-1.84V13.396c0-.356.083-.709.25-1.059.167-.35.421-.631.763-.842L20 2.66zm0 18.423l13.485-7.97L20 5.036 6.515 13.113 20 21.083zm0 2.376L6.261 15.322V31.56a.5.5 0 00.144.37.5.5 0 00.37.143h26.452a.5.5 0 00.368-.144.5.5 0 00.145-.369V15.322L20 23.46z" fill="#1C1B1F"/></g></svg>