<svg width="28" height="29" fill="none" xmlns="http://www.w3.org/2000/svg"><rect y=".5" width="28" height="28" rx="14" fill="#fff"/><path d="M14.64 6.5c.468 0 .812.124 1.031.372.22.234.329.558.329.971 0 .4-.146.758-.439 1.074-.292.303-.687.455-1.184.455-.468 0-.811-.124-1.03-.372-.22-.248-.33-.558-.33-.93 0-.427.14-.792.417-1.095.293-.317.695-.475 1.206-.475zm-1.6 15c-.658 0-1.163-.158-1.514-.475-.35-.317-.526-.737-.526-1.26 0-.193.022-.393.066-.6l1.666-7.892h2.413l-1.58 7.686c-.014.069-.028.13-.043.186v.144c0 .345.124.517.373.517.248 0 .49-.02.723-.062.234-.055.366-.09.395-.104v1.488a4.1 4.1 0 01-.548.186 3.393 3.393 0 01-.636.124 4.564 4.564 0 01-.79.062z" fill="#B88C5E"/></svg>