<svg width="40" height="40" fill="none" xmlns="http://www.w3.org/2000/svg"><mask id="a" style="mask-type:alpha" maskUnits="userSpaceOnUse" x="0" y="0" width="40" height="40"><path fill="#D9D9D9" d="M0 0h40v40H0z"/></mask><g mask="url(#a)"><path d="M15.587 21.378h2.672v-4.466h3.482v4.466h2.671v-7.244L20 11.209l-4.413 2.925v7.244zM20 33.068c3.407-3.042 6.007-5.949 7.799-8.72 1.791-2.77 2.687-5.194 2.687-7.269 0-3.162-1.005-5.758-3.014-7.79-2.01-2.03-4.5-3.045-7.472-3.045-2.971 0-5.462 1.015-7.472 3.046-2.01 2.03-3.014 4.627-3.014 7.79 0 2.074.906 4.497 2.718 7.268 1.813 2.771 4.402 5.678 7.768 8.72zm0 2.78c-4.194-3.634-7.34-7.016-9.436-10.147-2.096-3.13-3.144-6.004-3.144-8.622 0-3.846 1.244-6.96 3.732-9.34C13.64 5.356 16.59 4.165 20 4.165c3.41 0 6.36 1.19 8.848 3.572 2.488 2.381 3.732 5.495 3.732 9.341 0 2.618-1.048 5.492-3.144 8.622S24.194 32.214 20 35.85z" fill="#1C1B1F"/></g></svg>