<svg width="209" height="32" fill="none" xmlns="http://www.w3.org/2000/svg"><path d="M29.277 1.736h1.037v14.469h-1.037V1.736zm8.024 0h5.629c1.476 0 2.783.31 3.921.93a6.694 6.694 0 012.682 2.584c.637 1.089.955 2.329.955 3.72 0 1.392-.318 2.64-.955 3.742-.637 1.088-1.53 1.943-2.682 2.563-1.138.62-2.445.93-3.921.93H37.3V1.736zm5.547 13.518c1.314 0 2.472-.262 3.475-.785 1.002-.538 1.774-1.282 2.316-2.233.542-.95.813-2.04.813-3.265 0-1.227-.271-2.315-.813-3.266a5.57 5.57 0 00-2.316-2.212c-1.003-.537-2.16-.806-3.475-.806h-4.51v12.567h4.51zm23.085 0v.95H56.12V1.737h9.51v.951h-8.473v5.705h7.578v.93h-7.578v5.932h8.777zm14.607-3.121h-8.248l-1.808 4.072h-1.118l6.542-14.469h1.037l6.542 14.469H82.37l-1.83-4.072zm-.385-.889l-3.739-8.35-3.718 8.35h7.457zm7.946-9.508h1.036v13.518h8.188v.95h-9.224V1.737zm21.167 0h1.036v13.518h8.189v.95h-9.225V1.737zm13.917 0h1.036v14.469h-1.036V1.736zm16.477 7.007c1.016.193 1.788.6 2.316 1.22.542.62.813 1.426.813 2.418 0 1.226-.441 2.17-1.321 2.832-.88.661-2.187.992-3.921.992h-6.34V1.736h5.934c1.543 0 2.742.324 3.596.972.866.634 1.3 1.543 1.3 2.728 0 .827-.216 1.523-.65 2.088-.42.565-.996.971-1.727 1.22zm-7.417-6.097v5.767h4.856c1.247 0 2.202-.242 2.865-.724.678-.496 1.017-1.22 1.017-2.17 0-.937-.339-1.647-1.017-2.13-.663-.495-1.618-.743-2.865-.743h-4.856zm5.304 12.65c1.381 0 2.425-.242 3.129-.724.718-.496 1.077-1.254 1.077-2.274s-.359-1.77-1.077-2.253c-.704-.482-1.748-.723-3.129-.723h-5.304v5.973h5.304zm20.846.909l-3.394-4.837c-.501.07-.961.104-1.381.104h-4.064v4.733h-1.036V1.736h5.1c1.787 0 3.19.434 4.206 1.302 1.015.855 1.524 2.047 1.524 3.576 0 1.144-.292 2.109-.874 2.894-.569.772-1.389 1.316-2.459 1.633l3.556 5.064h-1.178zm-4.775-5.664c1.517 0 2.675-.337 3.474-1.012.799-.69 1.198-1.66 1.198-2.915 0-1.254-.399-2.218-1.198-2.893-.799-.69-1.957-1.034-3.474-1.034h-4.064v7.854h4.064zm20.352 1.592h-8.248l-1.809 4.072h-1.117l6.542-14.469h1.036l6.543 14.469h-1.118l-1.829-4.072zm-.385-.889l-3.739-8.35-3.718 8.35h7.457zm17.82 4.961l-3.393-4.837c-.501.07-.962.104-1.382.104h-4.063v4.733h-1.036V1.736h5.099c1.789 0 3.19.434 4.206 1.302 1.016.855 1.524 2.047 1.524 3.576 0 1.144-.291 2.109-.874 2.894-.569.772-1.388 1.316-2.458 1.633l3.556 5.064h-1.179zm-4.775-5.664c1.518 0 2.676-.337 3.475-1.012.799-.69 1.199-1.66 1.199-2.915 0-1.254-.4-2.218-1.199-2.893-.799-.69-1.957-1.034-3.475-1.034h-4.063v7.854h4.063zm15.746.682v4.982h-1.036v-4.981l-5.73-9.488h1.138l5.141 8.516 5.14-8.516h1.077l-5.73 9.487z" fill="#fff"/><path d="M2.026 28.623v-.585H5.74v.585H2.026zm.844-3.648c.48 0 .922.086 1.325.26.403.166.755.402 1.056.71.307.307.544.668.71 1.084.167.416.25.87.25 1.364 0 .492-.083.947-.25 1.363a3.193 3.193 0 01-.71 1.085c-.3.307-.653.547-1.056.72a3.44 3.44 0 01-1.325.25c-.512 0-.988-.084-1.43-.25a2.778 2.778 0 01-1.104-.74l.442-.45c.281.287.595.495.94.623.346.122.72.183 1.124.183.377 0 .726-.07 1.046-.212.326-.14.608-.335.845-.585.243-.25.432-.54.566-.874.135-.339.202-.71.202-1.113 0-.404-.067-.771-.202-1.104a2.648 2.648 0 00-.566-.884 2.534 2.534 0 00-.845-.585 2.57 2.57 0 00-1.046-.211 3.21 3.21 0 00-1.124.192 2.606 2.606 0 00-.94.614l-.442-.451a2.778 2.778 0 011.104-.74 4.032 4.032 0 011.43-.249zm9.543 6.778l-2.582-3.35.576-.346 2.822 3.696h-.816zm-4.598 0v-6.72h.691v6.72h-.691zm.48-3.082v-.624h2.102v.624H8.295zm2.17-.201l-.653-.116 2.505-3.321h.768l-2.62 3.436zm6.688 3.34c-.505 0-.973-.083-1.401-.25a3.374 3.374 0 01-1.114-.72 3.365 3.365 0 01-.74-1.084 3.519 3.519 0 01-.258-1.363c0-.493.086-.948.259-1.364.18-.416.426-.777.74-1.084a3.34 3.34 0 011.122-.71c.43-.174.896-.26 1.402-.26.486 0 .944.083 1.373.25.428.16.79.403 1.084.73l-.45.45a2.446 2.446 0 00-.913-.604 2.97 2.97 0 00-1.075-.192c-.403 0-.777.07-1.123.21-.346.135-.647.33-.903.587-.256.25-.457.544-.604.883-.141.332-.211.7-.211 1.104 0 .403.07.774.21 1.113.148.333.35.628.605.884.256.25.557.444.903.585.345.134.72.202 1.123.202a2.97 2.97 0 001.075-.192c.333-.128.637-.333.912-.615l.451.451a2.801 2.801 0 01-1.084.74c-.43.166-.89.25-1.383.25zm8.437-.057l-2.582-3.35.576-.346 2.822 3.696h-.816zm-4.598 0v-6.72h.69v6.72h-.69zm.48-3.082v-.624h2.102v.624h-2.102zm2.17-.201l-.654-.116 2.506-3.321h.768l-2.62 3.436zm3.402 3.34c-.09 0-.177-.006-.26-.019a1.696 1.696 0 01-.278-.048l.058-.633c.108.025.214.038.316.038a.829.829 0 00.692-.336c.179-.23.313-.582.403-1.056.09-.48.147-1.095.172-1.843l.097-2.88h4.56v6.72h-.701v-6.298l.182.192h-3.59l.172-.201-.086 2.447a17.171 17.171 0 01-.144 1.748c-.07.486-.173.893-.307 1.219-.134.32-.307.56-.518.72a1.27 1.27 0 01-.768.23zm7.931-.057v-6.72h.7v2.985h1.738v.643h-1.738v3.092h-.7zm5.424.057c-.48 0-.925-.083-1.335-.25A3.37 3.37 0 0138 30.84a3.266 3.266 0 01-.701-1.084 3.638 3.638 0 01-.25-1.363c0-.493.083-.948.25-1.364.166-.416.4-.777.7-1.084a3.24 3.24 0 011.066-.71c.41-.174.855-.26 1.335-.26s.924.086 1.334.26c.41.166.765.402 1.066.71.3.307.534.668.7 1.084.173.416.26.87.26 1.364 0 .492-.087.947-.26 1.363-.166.416-.4.777-.7 1.085a3.238 3.238 0 01-1.066.72 3.52 3.52 0 01-1.334.25zm0-.633a2.536 2.536 0 001.891-.787c.237-.25.422-.541.557-.874.134-.34.201-.714.201-1.123 0-.41-.067-.781-.201-1.114a2.728 2.728 0 00-.557-.883 2.42 2.42 0 00-.845-.576 2.57 2.57 0 00-1.046-.211c-.372 0-.72.07-1.047.21-.32.135-.598.327-.835.577a2.74 2.74 0 00-.557.883 2.95 2.95 0 00-.201 1.114c0 .41.067.784.201 1.123.135.333.32.624.557.874.237.25.515.444.835.585.327.134.675.202 1.047.202zm3.977-.231l.259-.509c.294.256.624.448.989.576a3.77 3.77 0 001.113.192c.371 0 .71-.054 1.018-.163.313-.109.566-.269.758-.48.192-.217.288-.48.288-.787 0-.39-.157-.691-.47-.902-.307-.212-.736-.317-1.287-.317h-1.44v-.576h1.402c.474 0 .842-.1 1.104-.298.269-.204.403-.486.403-.845a.969.969 0 00-.23-.652 1.356 1.356 0 00-.615-.423 2.443 2.443 0 00-.864-.163 3.237 3.237 0 00-.998.125c-.34.09-.669.233-.989.432l-.23-.586c.397-.236.81-.4 1.238-.49.429-.095.845-.127 1.248-.095s.765.125 1.085.278c.326.154.586.355.778.605.192.25.288.547.288.893 0 .32-.084.601-.25.845-.16.243-.387.431-.682.566-.288.128-.63.192-1.027.192l.039-.211c.448 0 .835.07 1.161.21.333.142.589.343.768.606.186.256.279.556.279.902 0 .327-.084.618-.25.874a2 2 0 01-.672.633 3.191 3.191 0 01-.95.365c-.352.07-.72.09-1.104.058a4.384 4.384 0 01-1.133-.25 3.56 3.56 0 01-1.027-.605zm6.804.807v-6.72h.7V30.6l4.301-5.568h.643v6.72h-.7v-5.559l-4.301 5.559h-.644zm7.816 0v-6.72h2.794c.71 0 1.267.147 1.67.441.41.288.614.714.614 1.277 0 .557-.195.98-.585 1.267-.39.282-.903.423-1.536.423l.163-.24c.749 0 1.318.147 1.709.441.39.295.585.727.585 1.296 0 .576-.204 1.024-.614 1.344-.403.314-1.011.47-1.824.47h-2.976zm.7-.567h2.276c.57 0 1.002-.105 1.296-.317.294-.21.442-.537.442-.979 0-.435-.148-.755-.442-.96-.294-.204-.726-.307-1.296-.307h-2.275v2.563zm0-3.11h2.055c.519 0 .915-.102 1.19-.307.282-.211.423-.522.423-.931 0-.41-.14-.717-.422-.922-.276-.211-.672-.317-1.19-.317h-2.055v2.477zm11.31-3.043h.7v6.72h-.7v-6.72zm-4.205 6.72h-.71v-6.72h.71v6.72zm4.272-3.101h-4.349v-.624h4.349v.624zm5.619-1.219c.793 0 1.398.179 1.814.537.423.352.634.877.634 1.575 0 .723-.224 1.273-.672 1.65-.448.372-1.088.558-1.92.558h-2.669v-6.72h.7v2.4h2.113zm-.163 3.753c.62 0 1.09-.137 1.41-.413.327-.275.49-.678.49-1.21 0-.53-.16-.92-.48-1.17-.32-.256-.793-.384-1.42-.384h-1.95v3.177h1.95zm3.772.567v-6.72h.701v6.72h-.7zm3.5-3.715h3.552v.604h-3.552v-.604zm.077 3.1h4.041v.615h-4.752v-6.72h4.608v.614h-3.897v5.491zm7.938.615v-6.72h4.915v.604h-4.214v2.199h2.198c.794 0 1.395.163 1.805.49.416.32.624.793.624 1.42 0 .647-.224 1.143-.672 1.488-.442.346-1.078.519-1.91.519h-2.746zm.7-.567h2.036c.62 0 1.088-.118 1.402-.355.32-.243.48-.595.48-1.056 0-.915-.628-1.373-1.882-1.373h-2.035v2.784zm6.17.567v-6.72h.7V30.6l4.301-5.568h.643v6.72h-.7v-5.559l-4.301 5.559h-.643zm7.816 0v-6.72h4.915v.604h-4.214v2.199h2.198c.794 0 1.396.163 1.805.49.416.32.624.793.624 1.42 0 .647-.224 1.143-.672 1.488-.441.346-1.078.519-1.91.519h-2.746zm.701-.567h2.035c.621 0 1.088-.118 1.402-.355.32-.243.48-.595.48-1.056 0-.915-.627-1.373-1.882-1.373h-2.035v2.784zm5.501.624a1.67 1.67 0 01-.259-.019 1.717 1.717 0 01-.279-.048l.058-.633c.109.025.214.038.317.038a.829.829 0 00.691-.336c.179-.23.314-.582.403-1.056.09-.48.147-1.095.173-1.843l.096-2.88h4.56v6.72h-.701v-6.298l.183.192h-3.591l.173-.201-.086 2.447a17.404 17.404 0 01-.144 1.748c-.071.486-.173.893-.308 1.219-.134.32-.307.56-.518.72a1.27 1.27 0 01-.768.23zm7.931-.057v-6.72h.701V30.6l4.301-5.568h.643v6.72h-.701v-5.559l-4.301 5.559h-.643zm10.764.057c-.506 0-.976-.083-1.411-.25a3.486 3.486 0 01-1.124-.72 3.516 3.516 0 01-.739-1.084 3.515 3.515 0 01-.259-1.363c0-.493.086-.944.259-1.354a3.302 3.302 0 011.863-1.805 3.734 3.734 0 011.411-.259c.505 0 .973.086 1.401.26.429.166.8.402 1.114.71.32.307.566.668.739 1.084.179.416.269.87.269 1.364 0 .492-.09.947-.269 1.363a3.177 3.177 0 01-.739 1.085 3.378 3.378 0 01-1.114.72c-.428.166-.896.25-1.401.25zm0-.633c.403 0 .774-.067 1.113-.202.346-.14.644-.336.893-.585.256-.256.455-.55.595-.884a2.87 2.87 0 00.212-1.113 2.8 2.8 0 00-.212-1.104 2.612 2.612 0 00-.595-.884 2.483 2.483 0 00-.893-.585 2.873 2.873 0 00-1.113-.211c-.403 0-.778.07-1.123.21-.346.135-.647.33-.903.587-.249.25-.448.544-.595.883-.141.332-.211.7-.211 1.104 0 .396.07.764.211 1.104.147.339.346.637.595.893.256.25.557.444.903.585.345.134.72.202 1.123.202zm6.363.576v-6.298l.192.192H135.4v-.614h5.424v.614h-2.544l.183-.192v6.298h-.701zm4.847-3.715h3.552v.604h-3.552v-.604zm.077 3.1h4.041v.615h-4.752v-6.72h4.608v.614h-3.897v5.491zm10.12.615l-2.583-3.35.576-.346 2.823 3.696h-.816zm-4.599 0v-6.72h.692v6.72h-.692zm.48-3.082v-.624h2.103v.624h-2.103zm2.17-.201l-.653-.116 2.506-3.321h.768l-2.621 3.436zm3.761 3.283v-6.72h.7V30.6l4.301-5.568h.643v6.72h-.7v-5.559l-4.301 5.559h-.643zm10.233 0v-6.72h.7V30.6l4.301-5.568h.643v6.72h-.7v-5.559l-4.301 5.559h-.643zm14.831 0l-2.582-3.35.576-.346 2.822 3.696h-.816zm-4.598 0v-6.72h.691v6.72h-.691zm.48-3.082v-.624h2.102v.624h-2.102zm2.169-.201l-.653-.116 2.506-3.321h.768l-2.621 3.436zm8.676-3.437h.701v6.72h-.701v-6.72zm-4.205 6.72h-.71v-6.72h.71v6.72zm4.272-3.101h-4.349v-.624h4.349v.624zm2.806 3.101v-6.72h.701V30.6l4.301-5.568h.643v6.72h-.701v-5.559l-4.301 5.559h-.643zm7.817 0v-6.72h4.272v.614h-3.763l.182-.182.01 6.288h-.701zm5.397 0v-6.72h.701V30.6l4.301-5.568h.643v6.72h-.701v-5.559l-4.3 5.559h-.644z" fill="#9E9E9E"/><path d="M2.958 7.976A10.116 10.116 0 01.814 3.901c.352.298.695.614 1.064.897 1.37 1.053 2.928 1.722 4.592 2.16.968.254 1.954.407 2.954.48.914.065 1.827.066 2.739-.012 2.17-.185 4.234-.748 6.138-1.82a9.897 9.897 0 002.14-1.607c.039-.04.08-.077.146-.14a10.118 10.118 0 01-2.1 4.053c1.77 1.194 2.723 2.82 2.687 4.958-.027 1.553-.647 2.86-1.767 3.936-2.316 2.227-6.533 2.13-8.647-1.026-1.005 1.436-2.358 2.321-4.12 2.515-1.765.193-3.312-.329-4.585-1.558C.757 15.488.194 13.93.372 12.157c.179-1.775 1.07-3.166 2.586-4.18zm3.044.955c-2.129-.013-3.925 1.76-3.815 3.99a3.797 3.797 0 003.815 3.59 3.796 3.796 0 003.814-3.99 3.808 3.808 0 00-3.814-3.59zm9.522-.001c-2.146-.008-3.917 1.78-3.816 3.974a3.8 3.8 0 003.814 3.606 3.797 3.797 0 003.815-3.991 3.81 3.81 0 00-3.813-3.59z" fill="#fff"/><path d="M3.32 2.258l.876-.286C6.18 1.319 8.162.666 10.147.018a.468.468 0 01.274.005c2.235.73 4.47 1.463 6.704 2.197.026.008.05.024.093.044l-1.944.746c-1.633.624-3.266 1.249-4.9 1.867a.398.398 0 01-.256-.016c-.905-.341-1.807-.69-2.71-1.035L3.566 2.355l-.245-.097z" fill="#fff"/><path d="M14.146 3.989v2.555a17.013 17.013 0 01-7.736-.199V3.983l.826.314c.961.368 1.922.733 2.882 1.104a.408.408 0 00.322-.002c1.184-.458 2.37-.91 3.557-1.362.04-.016.084-.028.149-.048zm-3.384 12.816c.546.582 1.077 1.146 1.603 1.715.03.032.041.118.02.155-.533.908-1.072 1.811-1.623 2.738l-.615-1.034c-.329-.555-.66-1.108-.984-1.666-.028-.049-.04-.151-.01-.184.527-.574 1.062-1.142 1.609-1.724z" fill="#fff"/><path d="M6.002 8.933a3.808 3.808 0 013.814 3.59 3.796 3.796 0 01-3.814 3.988 3.797 3.797 0 01-3.814-3.59c-.111-2.228 1.686-4.003 3.814-3.988zm-1.514 3.126c-.332.768-.061 1.6.574 2.015.729.475 1.618.361 2.166-.248a1.644 1.644 0 00.075-2.128c-.487-.614-1.37-.781-1.97-.468.205.372.2.601-.017.821-.19.194-.453.198-.828.008zm11.036-3.128a3.811 3.811 0 013.814 3.589 3.796 3.796 0 01-3.816 3.991 3.8 3.8 0 01-3.813-3.606c-.103-2.194 1.668-3.982 3.815-3.974zm.673 2.295c-.72-.345-1.609-.085-2.067.6-.447.669-.318 1.585.3 2.134.598.531 1.561.536 2.173.013.647-.556.696-1.444.417-1.91-.337.194-.613.189-.816-.017-.214-.216-.218-.465-.007-.82z" fill="#111"/><path d="M4.488 12.06c.375.19.637.185.828-.009.217-.22.222-.449.017-.821.6-.313 1.482-.145 1.97.47.498.627.469 1.52-.075 2.126-.548.61-1.437.723-2.166.248-.635-.414-.906-1.247-.574-2.015zm11.709-.835c-.211.355-.207.604.007.82.203.205.479.21.816.016.28.467.23 1.356-.417 1.91-.612.524-1.575.52-2.173-.012-.618-.55-.747-1.466-.3-2.134.457-.685 1.347-.946 2.067-.6z" fill="#fff"/></svg>