<svg width="194" height="23" fill="none" xmlns="http://www.w3.org/2000/svg"><g clip-path="url(#clip0_2560_435)"><path d="M28.273 5.07H29.3v14.328h-1.026V5.07zm6.914 0h5.573c1.462 0 2.757.308 3.883.922A6.629 6.629 0 0147.3 8.55c.63 1.078.946 2.306.946 3.684 0 1.378-.316 2.613-.946 3.705-.63 1.078-1.516 1.924-2.656 2.538-1.126.613-2.42.92-3.883.92h-5.573V5.072zm5.493 13.386c1.3 0 2.448-.26 3.44-.778.993-.532 1.757-1.269 2.294-2.21.536-.942.805-2.02.805-3.234S46.95 9.942 46.414 9a5.516 5.516 0 00-2.294-2.19c-.992-.532-2.14-.798-3.44-.798h-4.467v12.444h4.467zm21.827 0v.942H52.79V5.07h9.416v.941h-8.39v5.649h7.505v.921h-7.505v5.874h8.692zm14.465-3.09h-8.169l-1.79 4.032h-1.107L72.384 5.07h1.027l6.478 14.327h-1.106l-1.811-4.032zm-.382-.88l-3.703-8.27-3.682 8.27h7.385zm6.836-9.416h1.026v13.386h8.108v.942h-9.134V5.07zm17.865 0h1.026v13.386h8.108v.942h-9.134V5.07zm12.749 0h1.025v14.328h-1.025V5.07zm14.251 6.939c1.007.191 1.771.593 2.294 1.207.536.615.804 1.413.804 2.395 0 1.215-.435 2.15-1.307 2.804-.872.655-2.166.983-3.883.983h-6.278V5.07h5.876c1.528 0 2.715.32 3.561.962.858.627 1.287 1.528 1.287 2.701 0 .819-.214 1.508-.643 2.067-.416.56-.986.962-1.711 1.208zm-7.344-6.038v5.71h4.809c1.234 0 2.18-.238 2.837-.716.671-.491 1.006-1.207 1.006-2.149 0-.928-.335-1.63-1.006-2.108-.657-.491-1.603-.737-2.837-.737h-4.809zm5.252 12.526c1.368 0 2.401-.239 3.098-.716.711-.492 1.067-1.242 1.067-2.252 0-1.01-.356-1.753-1.067-2.23-.697-.478-1.73-.717-3.098-.717h-5.252v5.915h5.252zm19.61.901l-3.36-4.79a9.991 9.991 0 01-1.368.103h-4.024v4.687h-1.026V5.07h5.05c1.77 0 3.159.43 4.164 1.289 1.006.846 1.51 2.026 1.51 3.54 0 1.133-.289 2.088-.866 2.866-.563.764-1.375 1.303-2.435 1.617l3.521 5.015h-1.166zm-4.728-5.608c1.502 0 2.649-.335 3.44-1.003.791-.683 1.187-1.645 1.187-2.886 0-1.242-.396-2.197-1.187-2.866-.791-.682-1.938-1.023-3.44-1.023h-4.024v7.778h4.024zm20.153 1.576h-8.168l-1.791 4.032h-1.106l6.478-14.327h1.026l6.479 14.327h-1.107l-1.811-4.032zm-.382-.88l-3.701-8.27-3.682 8.27h7.383zm16.615 4.912l-3.36-4.79a9.991 9.991 0 01-1.368.103h-4.024v4.687h-1.026V5.07h5.05c1.771 0 3.159.43 4.164 1.289 1.006.846 1.509 2.026 1.509 3.54 0 1.133-.288 2.088-.865 2.866-.563.764-1.374 1.303-2.434 1.617l3.521 5.015h-1.167zm-4.728-5.608c1.502 0 2.649-.335 3.44-1.003.792-.683 1.187-1.645 1.187-2.886 0-1.242-.395-2.197-1.187-2.866-.791-.682-1.938-1.023-3.44-1.023h-4.024v7.778h4.024zm14.56.675v4.933h-1.026v-4.933l-5.674-9.394h1.127l5.09 8.432 5.09-8.432h1.066l-5.673 9.394zM2.592 9.296A10.016 10.016 0 01.47 5.26c.349.296.689.609 1.054.89 1.357 1.042 2.9 1.704 4.547 2.137.96.253 1.935.404 2.925.475.906.065 1.81.067 2.712-.01 2.15-.184 4.193-.741 6.079-1.803a9.798 9.798 0 002.118-1.59c.04-.04.08-.077.145-.139a10.02 10.02 0 01-2.08 4.013c1.753 1.182 2.697 2.792 2.66 4.91-.025 1.537-.64 2.83-1.748 3.896-2.294 2.206-6.469 2.11-8.563-1.016-.995 1.423-2.334 2.3-4.08 2.49-1.748.192-3.279-.324-4.54-1.541-1.285-1.238-1.843-2.78-1.666-4.537.177-1.758 1.059-3.135 2.56-4.139zm3.015.946c-2.108-.014-3.887 1.743-3.777 3.95a3.76 3.76 0 003.776 3.555 3.76 3.76 0 003.777-3.95 3.77 3.77 0 00-3.776-3.555zm9.429-.002c-2.126-.008-3.88 1.763-3.779 3.935a3.764 3.764 0 003.776 3.572 3.76 3.76 0 003.779-3.953 3.773 3.773 0 00-3.776-3.554z" fill="#fff"/><path d="M2.95 3.634l.868-.284c1.965-.646 3.928-1.293 5.894-1.934a.463.463 0 01.27.005c2.214.722 4.426 1.449 6.639 2.175.026.008.049.024.092.044l-1.925.738c-1.617.618-3.234 1.237-4.853 1.85a.394.394 0 01-.252-.017C8.787 5.873 7.893 5.529 7 5.187L3.194 3.73l-.243-.096z" fill="#fff"/><path d="M13.671 5.348v2.53a16.847 16.847 0 01-7.66-.197v-2.34l.818.312c.952.364 1.903.726 2.854 1.093.11.043.204.042.318-.002 1.173-.454 2.348-.9 3.523-1.349.04-.016.083-.027.147-.047zm-3.351 12.69c.54.577 1.067 1.135 1.588 1.698.03.032.04.117.02.154-.529.9-1.062 1.794-1.608 2.712l-.609-1.024c-.325-.55-.653-1.098-.974-1.65-.028-.049-.04-.15-.01-.182.522-.569 1.052-1.13 1.593-1.708z" fill="#fff"/><path d="M5.607 10.243a3.77 3.77 0 013.776 3.555 3.76 3.76 0 01-3.777 3.95 3.76 3.76 0 01-3.776-3.555c-.11-2.207 1.67-3.964 3.777-3.95zm-1.5 3.096c-.328.76-.06 1.585.569 1.995.722.47 1.602.358 2.144-.245.54-.6.568-1.485.075-2.107-.483-.608-1.357-.774-1.95-.464.203.369.198.596-.017.813-.19.192-.45.197-.82.008zm10.928-3.097a3.774 3.774 0 013.777 3.553 3.759 3.759 0 01-3.778 3.953 3.764 3.764 0 01-3.777-3.572c-.1-2.171 1.653-3.942 3.778-3.934zm.667 2.272c-.713-.342-1.593-.084-2.047.595-.442.662-.315 1.569.297 2.112.593.527 1.546.532 2.152.013.641-.55.69-1.43.413-1.892-.334.193-.607.188-.808-.016-.212-.214-.216-.46-.007-.812z" fill="#111"/><path d="M4.108 13.34c.37.188.63.183.82-.009.215-.217.22-.444.016-.813.594-.31 1.468-.144 1.95.465a1.627 1.627 0 01-.074 2.105c-.542.604-1.422.717-2.144.246-.63-.41-.897-1.235-.568-1.995zm11.594-.827c-.21.352-.205.598.007.812.2.203.474.208.808.016.277.463.228 1.342-.413 1.892-.606.518-1.56.513-2.152-.013-.612-.544-.74-1.451-.297-2.112.453-.679 1.334-.938 2.047-.595z" fill="#fff"/></g><defs><clipPath id="clip0_2560_435"><path fill="#fff" transform="translate(0 .649)" d="M0 0h194v22H0z"/></clipPath></defs></svg>