<svg width="362" height="52" fill="none" xmlns="http://www.w3.org/2000/svg"><path d="M51 3h1.79v25H51V3zm13.865 0h9.725c2.55 0 4.81.536 6.775 1.607C83.355 5.68 84.9 7.167 86 9.071c1.1 1.881 1.65 4.024 1.65 6.429 0 2.405-.55 4.56-1.65 6.464-1.1 1.881-2.644 3.357-4.634 4.429C79.4 27.464 77.141 28 74.59 28h-9.725V3zm9.584 23.357c2.27 0 4.272-.452 6.004-1.357 1.731-.929 3.066-2.214 4.002-3.857.936-1.643 1.404-3.524 1.404-5.643 0-2.119-.468-4-1.404-5.643-.936-1.643-2.27-2.917-4.002-3.821-1.732-.929-3.734-1.393-6.004-1.393h-7.794v21.714h7.794zm39.888 0V28H97.38V3h16.431v1.643h-14.64V14.5h13.095v1.607H99.171v10.25h15.166zm25.241-5.393h-14.254L122.2 28h-1.931l11.304-25h1.791l11.304 25h-1.93l-3.16-7.036zm-.667-1.535L132.451 5l-6.425 14.429h12.885zM152.641 3h1.79v23.357h14.148V28h-15.938V3zm36.575 0h1.79v23.357h14.149V28h-15.939V3zm24.047 0h1.79v25h-1.79V3zm28.469 12.107c1.756.334 3.09 1.036 4.003 2.107.936 1.072 1.404 2.465 1.404 4.179 0 2.119-.761 3.75-2.282 4.893-1.521 1.143-3.779 1.714-6.776 1.714h-10.954V3h10.253c2.667 0 4.738.56 6.213 1.679 1.498 1.095 2.247 2.666 2.247 4.714 0 1.428-.374 2.63-1.123 3.607-.726.976-1.72 1.679-2.985 2.107zM228.918 4.571v9.965h8.39c2.154 0 3.805-.417 4.95-1.25 1.171-.857 1.757-2.107 1.757-3.75 0-1.62-.586-2.846-1.757-3.679-1.145-.857-2.796-1.286-4.95-1.286h-8.39zm9.163 21.858c2.387 0 4.19-.417 5.407-1.25 1.24-.858 1.86-2.167 1.86-3.929s-.62-3.06-1.86-3.893c-1.217-.833-3.02-1.25-5.407-1.25h-9.163V26.43h9.163zM274.1 28l-5.863-8.357c-.866.119-1.661.178-2.387.178h-7.022V28h-1.79V3h8.812c3.089 0 5.512.75 7.267 2.25 1.755 1.476 2.634 3.536 2.634 6.179 0 1.976-.505 3.642-1.51 5-.984 1.333-2.4 2.273-4.249 2.821l6.144 8.75H274.1zm-8.25-9.786c2.621 0 4.623-.583 6.002-1.75 1.382-1.19 2.072-2.869 2.072-5.035 0-2.167-.69-3.834-2.072-5-1.379-1.19-3.381-1.786-6.002-1.786h-7.022v13.571h7.022zm35.167 2.75h-14.252L283.639 28h-1.93l11.304-25h1.79l11.306 25h-1.932l-3.16-7.036zm-.667-1.535L293.892 5l-6.426 14.429h12.884zM331.143 28l-5.864-8.357c-.865.119-1.661.178-2.387.178h-7.021V28h-1.791V3h8.812c3.09 0 5.512.75 7.268 2.25 1.755 1.476 2.633 3.536 2.633 6.179 0 1.976-.503 3.642-1.51 5-.983 1.333-2.398 2.273-4.247 2.821L333.18 28h-2.037zm-8.251-9.786c2.623 0 4.623-.583 6.004-1.75 1.381-1.19 2.072-2.869 2.072-5.035 0-2.167-.691-3.834-2.072-5-1.381-1.19-3.381-1.786-6.004-1.786h-7.021v13.571h7.021zm27.207 1.179V28h-1.79v-8.607L338.409 3h1.966l8.883 14.714L358.14 3H360l-9.901 16.393z" fill="#fff"/><path d="M.416 51v-8.4h.732l3.84 6.552h-.384L8.408 42.6h.732V51h-.852v-7.068h.204l-3.504 6h-.42l-3.528-6h.228V51H.416zm11.759 0l3.84-8.4h.876l3.84 8.4h-.936l-3.528-7.884h.36L13.099 51h-.924zm1.512-2.244l.264-.72h4.884l.264.72h-5.412zM23.78 51v-8.4h5.34v.768h-4.704l.228-.228.012 7.86h-.876zm5.49 0l3.84-8.4h.876l3.84 8.4h-.937l-3.528-7.884h.36L30.194 51h-.924zm1.512-2.244l.264-.72h4.883l.264.72h-5.411zm9.098 1.236l.323-.636c.368.32.78.56 1.236.72.464.152.928.232 1.392.24.464 0 .888-.068 1.272-.204.392-.136.708-.336.948-.6.24-.272.36-.6.36-.984 0-.488-.196-.864-.588-1.128-.384-.264-.92-.396-1.608-.396h-1.8v-.72h1.752c.592 0 1.052-.124 1.38-.372.336-.256.504-.608.504-1.056 0-.32-.096-.592-.288-.816a1.695 1.695 0 00-.768-.528 3.053 3.053 0 00-1.08-.204c-.4-.016-.816.036-1.248.156a4.541 4.541 0 00-1.236.54l-.288-.732a5.004 5.004 0 011.548-.612c.536-.12 1.056-.16 1.56-.12.504.04.956.156 1.356.348.408.192.732.444.972.756s.36.684.36 1.116c0 .4-.104.752-.312 1.056-.2.304-.484.54-.852.708-.36.16-.788.24-1.284.24l.048-.264c.56 0 1.044.088 1.452.264.416.176.736.428.96.756.232.32.348.696.348 1.128 0 .408-.104.772-.312 1.092-.2.312-.48.576-.84.792a3.99 3.99 0 01-1.188.456c-.44.088-.9.112-1.38.072a5.48 5.48 0 01-1.416-.312 4.45 4.45 0 01-1.284-.756zM49.944 51v-8.4h.876v6.96l5.376-6.96H57V51h-.876v-6.948L50.748 51h-.804zm17.475-8.4h.876V51h-.876v-8.4zM62.163 51h-.888v-8.4h.888V51zm5.34-3.876h-5.436v-.78h5.436v.78zm10.764-.036v-.732h4.644v.732h-4.644zm1.056-4.56c.6 0 1.152.108 1.656.324a3.92 3.92 0 011.32.888c.384.384.68.836.888 1.356.208.52.312 1.088.312 1.704 0 .616-.104 1.184-.312 1.704a3.99 3.99 0 01-.888 1.356 4.073 4.073 0 01-1.32.9 4.3 4.3 0 01-1.656.312 5.03 5.03 0 01-1.788-.312 3.473 3.473 0 01-1.38-.924l.552-.564c.352.36.744.62 1.176.78.432.152.9.228 1.404.228.472 0 .908-.088 1.308-.264.408-.176.76-.42 1.056-.732a3.34 3.34 0 00.708-1.092c.168-.424.252-.888.252-1.392 0-.504-.084-.964-.252-1.38a3.31 3.31 0 00-.708-1.104 3.167 3.167 0 00-1.056-.732 3.212 3.212 0 00-1.308-.264c-.504 0-.972.08-1.404.24-.432.16-.824.416-1.176.768l-.552-.564a3.473 3.473 0 011.38-.924 5.03 5.03 0 011.788-.312zM92.811 51l-3.228-4.188.72-.432L93.832 51h-1.02zm-5.748 0v-8.4h.864V51h-.864zm.6-3.852v-.78h2.629v.78h-2.629zm2.713-.252l-.817-.144 3.133-4.152h.96l-3.276 4.296zm9.921 4.176a4.803 4.803 0 01-1.752-.312c-.536-.216-1-.516-1.392-.9a4.207 4.207 0 01-.924-1.356 4.399 4.399 0 01-.324-1.704c0-.616.108-1.184.324-1.704.224-.52.532-.972.924-1.356.4-.384.868-.68 1.404-.888a4.645 4.645 0 011.752-.324c.608 0 1.18.104 1.716.312.536.2.988.504 1.356.912l-.564.564a3.057 3.057 0 00-1.14-.756 3.712 3.712 0 00-1.344-.24c-.504 0-.972.088-1.404.264a3.233 3.233 0 00-1.128.732c-.32.312-.572.68-.756 1.104a3.507 3.507 0 00-.264 1.38c0 .504.088.968.264 1.392.184.416.436.784.756 1.104.32.312.696.556 1.128.732.432.168.9.252 1.404.252.48 0 .928-.08 1.344-.24.416-.16.796-.416 1.14-.768l.564.564c-.368.408-.82.716-1.356.924a4.735 4.735 0 01-1.728.312zM112.402 51l-3.228-4.188.72-.432 3.528 4.62h-1.02zm-5.748 0v-8.4h.864V51h-.864zm.6-3.852v-.78h2.628v.78h-2.628zm2.712-.252l-.816-.144 3.132-4.152h.96l-3.276 4.296zm5.813 4.176c-.112 0-.22-.008-.324-.024a2.12 2.12 0 01-.348-.06l.072-.792c.136.032.268.048.396.048.36 0 .648-.14.864-.42.224-.288.392-.728.504-1.32.112-.6.184-1.368.216-2.304l.12-3.6h5.7V51h-.876v-7.872l.228.24h-4.488l.216-.252-.108 3.06c-.032.84-.092 1.568-.18 2.184-.088.608-.216 1.116-.384 1.524-.168.4-.384.7-.648.9-.264.192-.584.288-.96.288zM127.253 51v-8.4h.876v3.732h2.172v.804h-2.172V51h-.876zm6.78.072a4.39 4.39 0 01-1.668-.312 4.212 4.212 0 01-1.332-.9 4.082 4.082 0 01-.876-1.356 4.547 4.547 0 01-.312-1.704c0-.616.104-1.184.312-1.704.208-.52.5-.972.876-1.356a4.05 4.05 0 011.332-.888 4.247 4.247 0 011.668-.324c.6 0 1.156.108 1.668.324.512.208.956.504 1.332.888.376.384.668.836.876 1.356.216.52.324 1.088.324 1.704 0 .616-.108 1.184-.324 1.704-.208.52-.5.972-.876 1.356a4.04 4.04 0 01-1.332.9 4.39 4.39 0 01-1.668.312zm0-.792c.472 0 .908-.084 1.308-.252.408-.176.76-.42 1.056-.732.296-.312.528-.676.696-1.092a3.78 3.78 0 00.252-1.404c0-.512-.084-.976-.252-1.392a3.41 3.41 0 00-.696-1.104 3.025 3.025 0 00-1.056-.72 3.212 3.212 0 00-1.308-.264c-.464 0-.9.088-1.308.264-.4.168-.748.408-1.044.72a3.41 3.41 0 00-.696 1.104c-.168.416-.252.88-.252 1.392 0 .512.084.98.252 1.404.168.416.4.78.696 1.092a3.2 3.2 0 001.044.732c.408.168.844.252 1.308.252zm6.531-.288l.324-.636c.368.32.78.56 1.236.72.464.152.928.232 1.392.24.464 0 .888-.068 1.272-.204.392-.136.708-.336.948-.6.24-.272.36-.6.36-.984 0-.488-.196-.864-.588-1.128-.384-.264-.92-.396-1.608-.396h-1.8v-.72h1.752c.592 0 1.052-.124 1.38-.372.336-.256.504-.608.504-1.056 0-.32-.096-.592-.288-.816a1.695 1.695 0 00-.768-.528 3.053 3.053 0 00-1.08-.204c-.4-.016-.816.036-1.248.156a4.541 4.541 0 00-1.236.54l-.288-.732a5.004 5.004 0 011.548-.612 5.222 5.222 0 011.56-.12c.504.04.956.156 1.356.348.408.192.732.444.972.756s.36.684.36 1.116c0 .4-.104.752-.312 1.056-.2.304-.484.54-.852.708-.36.16-.788.24-1.284.24l.048-.264c.56 0 1.044.088 1.452.264.416.176.736.428.96.756.232.32.348.696.348 1.128 0 .408-.104.772-.312 1.092-.2.312-.48.576-.84.792a3.99 3.99 0 01-1.188.456c-.44.088-.9.112-1.38.072a5.48 5.48 0 01-1.416-.312 4.45 4.45 0 01-1.284-.756zM150.629 51v-8.4h.876v6.96l5.376-6.96h.804V51h-.876v-6.948L151.433 51h-.804zm11.331 0v-8.4h3.492c.888 0 1.584.184 2.088.552.512.36.768.892.768 1.596 0 .696-.244 1.224-.732 1.584-.488.352-1.128.528-1.92.528l.204-.3c.936 0 1.648.184 2.136.552.488.368.732.908.732 1.62 0 .72-.256 1.28-.768 1.68-.504.392-1.264.588-2.28.588h-3.72zm.876-.708h2.844c.712 0 1.252-.132 1.62-.396.368-.264.552-.672.552-1.224 0-.544-.184-.944-.552-1.2-.368-.256-.908-.384-1.62-.384h-2.844v3.204zm0-3.888h2.568c.648 0 1.144-.128 1.488-.384.352-.264.528-.652.528-1.164 0-.512-.176-.896-.528-1.152-.344-.264-.84-.396-1.488-.396h-2.568v3.096zm15.696-3.804h.876V51h-.876v-8.4zm-5.256 8.4h-.888v-8.4h.888V51zm5.34-3.876h-5.436v-.78h5.436v.78zM187.2 45.6c.992 0 1.748.224 2.268.672.528.44.792 1.096.792 1.968 0 .904-.28 1.592-.84 2.064-.56.464-1.36.696-2.4.696h-3.336v-8.4h.876v3h2.64zm-.204 4.692c.776 0 1.364-.172 1.764-.516.408-.344.612-.848.612-1.512s-.2-1.152-.6-1.464c-.4-.32-.992-.48-1.776-.48h-2.436v3.972h2.436zm4.716.708v-8.4h.876V51h-.876zm4.206-8.4h1.02l2.388 3.324 2.376-3.324h1.044l-2.868 4.032L202.974 51h-1.044l-2.604-3.612L196.722 51h-1.02l3.084-4.332-2.868-4.068zm14.761 8.4v-8.4h6.144v.756h-5.268v2.748h2.748c.992 0 1.744.204 2.256.612.52.4.78.992.78 1.776 0 .808-.28 1.428-.84 1.86-.552.432-1.348.648-2.388.648h-3.432zm.876-.708h2.544c.776 0 1.36-.148 1.752-.444.4-.304.6-.744.6-1.32 0-1.144-.784-1.716-2.352-1.716h-2.544v3.48zm9.271.708v-8.4h.876v6.96l5.376-6.96h.804V51h-.876v-6.948L221.63 51h-.804zm11.331 0v-8.4h6.144v.756h-5.268v2.748h2.748c.992 0 1.744.204 2.256.612.52.4.78.992.78 1.776 0 .808-.28 1.428-.84 1.86-.552.432-1.348.648-2.388.648h-3.432zm.876-.708h2.544c.776 0 1.36-.148 1.752-.444.4-.304.6-.744.6-1.32 0-1.144-.784-1.716-2.352-1.716h-2.544v3.48zm8.436.78c-.112 0-.22-.008-.324-.024a2.12 2.12 0 01-.348-.06l.072-.792c.136.032.268.048.396.048.36 0 .648-.14.864-.42.224-.288.392-.728.504-1.32.112-.6.184-1.368.216-2.304l.12-3.6h5.7V51h-.876v-7.872l.228.24h-4.488l.216-.252-.108 3.06c-.032.84-.092 1.568-.18 2.184-.088.608-.216 1.116-.384 1.524-.168.4-.384.7-.648.9-.264.192-.584.288-.96.288zM252.943 51v-8.4h.876v6.96l5.376-6.96h.804V51h-.876v-6.948L253.747 51h-.804zm15.015.072c-.632 0-1.22-.104-1.764-.312a4.355 4.355 0 01-1.404-.9 4.387 4.387 0 01-.924-1.356 4.399 4.399 0 01-.324-1.704c0-.616.108-1.18.324-1.692.224-.52.532-.972.924-1.356.4-.392.868-.692 1.404-.9a4.677 4.677 0 011.764-.324c.632 0 1.216.108 1.752.324.536.208 1 .504 1.392.888.4.384.708.836.924 1.356.224.52.336 1.088.336 1.704 0 .616-.112 1.184-.336 1.704-.216.52-.524.972-.924 1.356a4.217 4.217 0 01-1.392.9 4.802 4.802 0 01-1.752.312zm0-.792c.504 0 .968-.084 1.392-.252a3.34 3.34 0 001.116-.732c.32-.32.568-.688.744-1.104.176-.424.264-.888.264-1.392 0-.504-.088-.964-.264-1.38a3.28 3.28 0 00-.744-1.104 3.114 3.114 0 00-1.116-.732 3.596 3.596 0 00-1.392-.264c-.504 0-.972.088-1.404.264a3.233 3.233 0 00-1.128.732c-.312.312-.56.68-.744 1.104a3.507 3.507 0 00-.264 1.38c0 .496.088.956.264 1.38.184.424.432.796.744 1.116.32.312.696.556 1.128.732.432.168.9.252 1.404.252zm9.514.72v-7.872l.24.24h-3.192V42.6h6.78v.768h-3.18l.228-.24V51h-.876zm7.619-4.644h4.44v.756h-4.44v-.756zm.096 3.876h5.052V51h-5.94v-8.4h5.76v.768h-4.872v6.864zm14.21.768l-3.228-4.188.72-.432 3.528 4.62h-1.02zm-5.748 0v-8.4h.864V51h-.864zm.6-3.852v-.78h2.628v.78h-2.628zm2.712-.252l-.816-.144 3.132-4.152h.96l-3.276 4.296zM308.095 51v-8.4h.876v6.96l5.376-6.96h.804V51h-.876v-6.948L308.899 51h-.804zm21.659 0l-3.228-4.188.72-.432 3.528 4.62h-1.02zm-5.748 0v-8.4h.864V51h-.864zm.6-3.852v-.78h2.628v.78h-2.628zm2.712-.252l-.816-.144 3.132-4.152h.96l-3.276 4.296zm12.405-4.296h.876V51h-.876v-8.4zm-5.256 8.4h-.888v-8.4h.888V51zm5.34-3.876h-5.436v-.78h5.436v.78zM344.875 51v-8.4h.876v6.96l5.376-6.96h.804V51h-.876v-6.948L345.679 51h-.804zm11.33 0v-8.4h5.34v.768h-4.704l.228-.228.012 7.86h-.876z" fill="#9E9E9E"/><path d="M5.524 13.783C3.729 11.688 2.499 9.345 1.819 6.74c.608.515 1.201 1.061 1.838 1.55 2.368 1.82 5.06 2.975 7.935 3.732 1.673.44 3.376.705 5.105.829a30.02 30.02 0 004.732-.02c3.751-.319 7.316-1.292 10.606-3.144a17.102 17.102 0 003.696-2.777c.069-.068.14-.132.254-.24-.691 2.639-1.89 4.952-3.629 7.002 3.058 2.062 4.705 4.872 4.642 8.566-.046 2.683-1.117 4.94-3.052 6.8-4.003 3.85-11.288 3.681-14.942-1.772-1.735 2.482-4.073 4.011-7.117 4.345-3.052.334-5.723-.567-7.924-2.69-2.242-2.16-3.215-4.853-2.908-7.917.31-3.067 1.848-5.47 4.469-7.222zm5.26 1.65c-3.679-.024-6.783 3.04-6.592 6.892a6.56 6.56 0 006.59 6.203c3.757.011 6.78-3.102 6.591-6.893-.165-3.329-2.958-6.212-6.59-6.203zm16.452-.003c-3.708-.015-6.768 3.076-6.593 6.866a6.567 6.567 0 006.59 6.232c3.787.011 6.785-3.132 6.593-6.897-.167-3.296-2.92-6.2-6.59-6.201z" fill="#fff"/><path d="M6.15 3.901l1.513-.494C11.09 2.28 14.516 1.151 17.946.031a.809.809 0 01.472.009c3.864 1.26 7.724 2.528 11.585 3.796.044.014.085.04.16.077L26.804 5.2c-2.821 1.079-5.642 2.159-8.468 3.227-.126.048-.306.022-.44-.028-1.564-.59-3.122-1.191-4.681-1.788L6.574 4.07c-.122-.047-.244-.096-.425-.168z" fill="#fff"/><path d="M24.856 6.892v4.416a29.4 29.4 0 01-13.368-.344V6.882c.492.186.96.364 1.428.543 1.66.635 3.322 1.267 4.98 1.907a.705.705 0 00.555-.004c2.046-.79 4.097-1.57 6.148-2.353.07-.028.144-.048.257-.083zm-5.848 22.145c.944 1.006 1.862 1.98 2.77 2.963.052.056.071.204.034.268-.92 1.569-1.852 3.13-2.803 4.732l-1.063-1.788c-.569-.958-1.14-1.914-1.7-2.877-.05-.086-.07-.262-.019-.318.912-.993 1.837-1.974 2.78-2.98z" fill="#fff"/><path d="M10.784 15.435c3.631-.01 6.424 2.874 6.59 6.202.189 3.791-2.835 6.904-6.591 6.893a6.56 6.56 0 01-6.59-6.202c-.192-3.852 2.913-6.918 6.59-6.893zm-2.616 5.402c-.575 1.326-.106 2.766.991 3.481 1.26.82 2.795.624 3.742-.429a2.84 2.84 0 00.13-3.675c-.841-1.062-2.367-1.351-3.403-.81.354.644.346 1.04-.029 1.419-.33.335-.784.342-1.431.014zm19.068-5.405c3.67.002 6.422 2.905 6.59 6.2a6.559 6.559 0 01-6.593 6.897 6.567 6.567 0 01-6.59-6.231c-.176-3.79 2.885-6.88 6.593-6.866zm1.163 3.965c-1.243-.597-2.78-.146-3.572 1.038-.772 1.155-.55 2.738.52 3.686 1.033.919 2.697.927 3.753.022 1.12-.96 1.204-2.493.721-3.3-.582.336-1.059.327-1.41-.028-.37-.374-.377-.804-.012-1.418z" fill="#111"/><path d="M8.168 20.837c.647.328 1.1.32 1.431-.014.375-.38.383-.775.029-1.42 1.036-.54 2.56-.25 3.403.812a2.84 2.84 0 01-.13 3.674c-.947 1.053-2.482 1.25-3.742.43-1.097-.716-1.566-2.155-.991-3.482zm20.231-1.442c-.365.615-.357 1.044.012 1.417.351.354.828.364 1.41.028.483.807.398 2.343-.72 3.3-1.057.906-2.721.897-3.755-.021-1.068-.949-1.291-2.532-.519-3.686.791-1.184 2.329-1.636 3.572-1.038z" fill="#fff"/></svg>