<svg width="41" height="40" fill="none" xmlns="http://www.w3.org/2000/svg"><mask id="a" style="mask-type:alpha" maskUnits="userSpaceOnUse" x="0" y="0" width="41" height="40"><path fill="#D9D9D9" d="M.25 0h40v40h-40z"/></mask><g mask="url(#a)"><path d="M8.691 34.165a2.509 2.509 0 01-1.84-.768 2.509 2.509 0 01-.767-1.839V8.44c0-.714.256-1.327.768-1.84a2.51 2.51 0 011.84-.767H31.81c.714 0 1.328.256 1.84.768a2.51 2.51 0 01.767 1.84v5.222h-2.094V8.439a.5.5 0 00-.144-.369.5.5 0 00-.369-.144H8.691a.5.5 0 00-.369.144.5.5 0 00-.144.37v23.118a.5.5 0 00.144.369.5.5 0 00.37.144H31.81a.5.5 0 00.369-.144.5.5 0 00.144-.369v-5.206h2.094v5.206a2.51 2.51 0 01-.768 1.84 2.509 2.509 0 01-1.839.767H8.691zm14.099-6.931c-.792 0-1.47-.28-2.038-.842a2.753 2.753 0 01-.85-2.03v-8.71c0-.792.284-1.468.85-2.03a2.794 2.794 0 012.038-.841h10.44c.8 0 1.483.28 2.049.841.567.562.85 1.238.85 2.03v8.71c0 .792-.283 1.469-.85 2.03a2.806 2.806 0 01-2.05.842H22.79zm10.732-2.095a.504.504 0 00.513-.512v-9.24a.494.494 0 00-.15-.363c-.1-.1-.22-.15-.363-.15H22.509a.495.495 0 00-.363.15c-.1.1-.15.221-.15.363v9.24a.504.504 0 00.513.513h11.013zm-6.35-2.561a2.47 2.47 0 001.82-.758 2.513 2.513 0 00.752-1.838c0-.718-.253-1.324-.761-1.82a2.513 2.513 0 00-1.818-.742c-.713 0-1.323.247-1.83.742a2.445 2.445 0 00-.76 1.82c0 .72.253 1.334.758 1.838a2.503 2.503 0 001.839.758z" fill="#1C1B1F"/></g></svg>