<svg width="41" height="40" fill="none" xmlns="http://www.w3.org/2000/svg"><mask id="a" style="mask-type:alpha" maskUnits="userSpaceOnUse" x="0" y="0" width="41" height="40"><path fill="#D9D9D9" d="M.25 0h40v40h-40z"/></mask><g mask="url(#a)"><path d="M36.083 10.107v19.786a2.51 2.51 0 01-.767 1.84 2.51 2.51 0 01-1.84.767H7.023a2.51 2.51 0 01-1.84-.766 2.51 2.51 0 01-.767-1.841V10.107c0-.716.255-1.33.766-1.84A2.51 2.51 0 017.023 7.5h26.453c.716 0 1.33.255 1.84.766.511.511.767 1.125.767 1.841zM6.51 14.193h27.48v-4.086a.491.491 0 00-.16-.353.491.491 0 00-.353-.16H7.023a.491.491 0 00-.353.16.491.491 0 00-.16.353v4.086zm0 4.683v11.017c0 .128.054.246.16.353a.49.49 0 00.353.16h26.453a.491.491 0 00.352-.16.49.49 0 00.16-.353V18.876H6.51z" fill="#1C1B1F"/></g></svg>