<svg width="40" height="40" fill="none" xmlns="http://www.w3.org/2000/svg"><mask id="a" style="mask-type:alpha" maskUnits="userSpaceOnUse" x="0" y="0" width="40" height="40"><path fill="#D9D9D9" d="M0 0h40v40H0z"/></mask><g mask="url(#a)"><path d="M30.672 35.833c-3.017 0-6.1-.74-9.25-2.222-3.148-1.481-6.071-3.572-8.767-6.274-2.696-2.701-4.785-5.624-6.266-8.768-1.481-3.144-2.222-6.224-2.222-9.242 0-.522.173-.957.518-1.305.345-.348.776-.523 1.294-.523h4.982c.43 0 .798.14 1.105.42.306.281.515.638.626 1.072l.98 4.612c.061.432.047.814-.041 1.146a1.74 1.74 0 01-.494.84L9.232 19.39a30.327 30.327 0 002.278 3.437 30.072 30.072 0 002.65 3.009 28.564 28.564 0 003.182 2.796 29.494 29.494 0 003.619 2.33l3.768-3.851a2.09 2.09 0 01.938-.602c.353-.107.72-.132 1.102-.077l4.24.908c.44.104.798.326 1.075.667.278.34.416.726.416 1.157v4.857c0 .517-.174.949-.522 1.294-.348.345-.783.518-1.306.518zM8.207 17.459l3.285-3.173a.327.327 0 00.093-.177.48.48 0 00.003-.208L10.74 9.85a.288.288 0 00-.107-.193.347.347 0 00-.214-.063H6.494a.218.218 0 00-.225.224c.045 1.15.226 2.357.546 3.62.32 1.264.784 2.604 1.392 4.02zm14.731 14.5a17.17 17.17 0 003.646 1.265c1.303.299 2.502.468 3.598.508a.218.218 0 00.224-.224v-3.895a.348.348 0 00-.064-.214.288.288 0 00-.192-.107l-3.686-.756a.314.314 0 00-.168.002.458.458 0 00-.152.094l-3.206 3.327zm5.18-12.366c-2.134 0-3.953-.752-5.456-2.256-1.504-1.505-2.256-3.324-2.256-5.458 0-2.135.752-3.954 2.257-5.458 1.504-1.503 3.324-2.255 5.458-2.255 2.135 0 3.954.752 5.457 2.257 1.504 1.504 2.256 3.324 2.256 5.458 0 2.134-.753 3.954-2.257 5.457-1.505 1.504-3.324 2.255-5.458 2.255zm-.735-2.81h1.474V10.47h-1.474v6.315zm.737-8.076a.8.8 0 00.583-.25.8.8 0 00.25-.583.8.8 0 00-.25-.584.8.8 0 00-.583-.25.8.8 0 00-.583.25.8.8 0 00-.25.584.8.8 0 00.25.583.8.8 0 00.583.25z" fill="#1C1B1F"/></g></svg>