<svg width="90" height="90" fill="none" xmlns="http://www.w3.org/2000/svg"><g clip-path="url(#clip0_4497_5993)"><circle cx="45" cy="45" r="45" fill="url(#paint0_linear_4497_5993)"/><circle cx="45" cy="45" r="29.75" stroke="#fff" stroke-width=".5"/><g clip-path="url(#clip1_4497_5993)" fill="#fff"><path d="M5.905 39.517l-.213 1.985 1.017.202c3.428.695 3.786 1.469 3.585 2.321l-.66-.078c.08-.382-.044-1.066-3.55-1.694L5 42.063l.346-3.275 5.44.583-.068.662-4.813-.516zm5.661-3.769l-5.16-1.816.224-.628 4.132 1.457-3.027-4.609.19-.56 5.16 1.816-.223.628-4.133-1.457 3.027 4.608-.19.561zm-1.43-10.719l.369-.561 3.484-.157-1.24-3.218.347-.528 4.557 3.05-.369.561-3.686-2.467 1.184 3.14-.056.09-3.339.134 3.663 2.456-.368.561-4.557-3.05.011-.011zm9.929-4.15l-3.674-4.071.491-.449 2.937 3.264-.48-5.495.436-.393 3.674 4.071-.491.449-2.938-3.264.48 5.495-.435.393zm3.085-9.587l3.898-2.243.312.55-1.664.953 2.413 4.227-.581.337-2.412-4.228-1.665.953-.312-.55h.01zm9.346 1.322l-1.619-5.248.637-.202 1.295 4.194 1.876-5.18.559-.18 1.62 5.248-.637.202-1.296-4.194-1.876 5.18-.559.18zm7.999-1.984l-.47-5.473c.302-.022 1.084-.112 1.43-.134 1.552-.135 2.089.672 2.167 1.525.078.886-.48 1.771-1.82 1.884a9.143 9.143 0 01-.816.033l.179 2.108-.66.056h-.01zm.245-4.912l.179 2.108c.268 0 .525 0 .793-.034.804-.067 1.25-.527 1.195-1.21-.056-.651-.48-1.032-1.34-.954-.224.023-.57.056-.827.09zm9.492-.572c1.575.213 2.614 1.514 2.401 3.174-.212 1.615-1.563 2.646-3.138 2.433-1.575-.213-2.613-1.514-2.401-3.173.212-1.582 1.519-2.647 3.138-2.434zm-.659 4.98c1.24.167 2.19-.674 2.357-1.907.167-1.267-.626-2.299-1.787-2.456-1.184-.157-2.19.64-2.357 1.906-.167 1.234.626 2.3 1.787 2.456zm7.728-3.332c.29.1.939.314 1.419.493 1.229.449 1.452 1.167 1.184 1.884-.235.65-.77.886-1.318.875.603.348.871.92.614 1.626-.38 1.043-1.351 1.2-2.412.807a46.951 46.951 0 01-1.374-.538l1.876-5.147h.011zM56.9 9.822l-.637 1.75c.167.078.491.212.782.324.76.28 1.318.135 1.552-.504.201-.55-.123-.998-.86-1.268l-.826-.302H56.9zm.804-2.22l-.604 1.67.827.303c.547.202 1.106.067 1.307-.493.2-.539-.056-.954-.737-1.212a12.43 12.43 0 00-.782-.257l-.011-.012zm8.377 3.274l.48.303-.95 5.932-.602-.381.29-1.783-2.11-1.335-1.475 1.032-.57-.359 4.926-3.409h.011zm-2.323 2.355l1.664 1.054.413-2.512-2.077 1.458zm8.52 6.661l-2.122-2.141-1.753 1.76-.47-.47 3.876-3.88.47.47-1.676 1.682 2.122 2.142 1.675-1.682.47.471-3.876 3.88-.47-.471 1.754-1.76zm5.027 6.953l-1.586-2.568-2.111 1.312-.346-.572 4.657-2.882.346.572-2.01 1.244 1.586 2.568 2.01-1.244.346.572-4.657 2.881-.346-.571 2.11-1.312zm5.819 5.742c.491 1.513-.224 3.016-1.81 3.532-1.54.505-3.048-.27-3.54-1.783-.491-1.514.224-3.016 1.81-3.544 1.507-.493 3.037.236 3.54 1.795zm-4.758 1.558c.391 1.19 1.553 1.694 2.725 1.312 1.206-.392 1.798-1.547 1.43-2.669-.369-1.132-1.52-1.704-2.725-1.311-1.184.38-1.798 1.558-1.43 2.668zm6.332 5.551l.301 3.084-.625.067-.235-2.422-1.764.168.212 2.187-.626.067-.212-2.186-1.82.18.245 2.5-.625.056-.313-3.162 5.45-.539h.012zM19.363 74.908l3.329-4.362.524.404-2.658 3.487 5.305-1.458.47.36-3.329 4.361-.525-.403 2.658-3.488-5.294 1.458-.468-.359h-.012zm7.584 4.262l.525-.247c.145.527.559 1.02.96 1.211.649.303 1.285.202 1.575-.426.235-.494.023-.976-.591-1.267l-.57-.27.268-.571.536.246a.903.903 0 001.206-.448c.257-.538 0-.998-.514-1.234-.49-.235-.915-.19-1.384.023l-.168-.561c.536-.28 1.24-.303 1.876 0 .86.404 1.218 1.155.816 1.996a1.438 1.438 0 01-1.251.796v.023c.536.392.614 1.031.346 1.603-.424.92-1.474 1.088-2.379.662-.76-.359-1.173-1.02-1.25-1.548v.012zm6.612 2.982l.57.135c.278-.225 1.094-1.256 1.72-3.465l.3-1.054 3.139.728-1.083 4.744.726.168-.369 1.604-.603-.146.223-.998-4.143-.953-.224.998-.614-.146.369-1.604-.011-.01zm1.284.303l2.703.628.949-4.127-1.865-.426-.29.942c-.559 1.817-1.24 2.792-1.497 2.994v-.011zm9.761-3.589h.57l2.267 5.573h-.715l-.681-1.682-2.49-.033-.727 1.66h-.67l2.435-5.507.011-.01zm-.77 3.219l1.965.033-.95-2.366-1.027 2.333h.011zm10.744-1.413l-2.937.662.547 2.422-.648.146-1.206-5.35.648-.145.525 2.321 2.937-.661-.525-2.322.648-.145 1.206 5.349-.648.145-.547-2.422zm5.728.662L57.87 76.41l.592-.292 1.943 3.936 1.028-5.416.525-.258 2.434 4.923-.591.291-1.944-3.936-1.027 5.417-.525.258zm4.614-8.96l2.412-1.94.391.493-1.887 1.525 1.105 1.38 1.71-1.38.39.493-1.709 1.38 1.14 1.435 1.954-1.57.39.494-2.467 1.984-3.43-4.283v-.011z"/></g><path d="M31.524 39.782c-1.795-2.094-3.025-4.437-3.705-7.042.608.515 1.201 1.061 1.838 1.55 2.368 1.82 5.06 2.975 7.935 3.732 1.673.44 3.376.705 5.105.829a30.02 30.02 0 004.732-.02c3.751-.319 7.316-1.292 10.606-3.144a17.104 17.104 0 003.696-2.777c.069-.068.14-.132.254-.24-.691 2.639-1.89 4.952-3.629 7.002 3.058 2.062 4.705 4.873 4.642 8.566-.046 2.683-1.117 4.94-3.052 6.8-4.003 3.85-11.288 3.681-14.942-1.772-1.735 2.482-4.073 4.011-7.117 4.345-3.051.334-5.723-.567-7.924-2.69-2.242-2.16-3.215-4.853-2.908-7.917.31-3.067 1.849-5.47 4.469-7.221zm5.26 1.65c-3.642-.023-6.72 2.98-6.596 6.776 0 .04.003.078.005.117a6.56 6.56 0 006.59 6.203c3.756.011 6.78-3.102 6.59-6.893 0-.011 0-.022-.002-.033a6.336 6.336 0 00-.18-1.188c-.694-2.782-3.23-4.99-6.407-4.982zm16.452-.002c-3.708-.015-6.768 3.076-6.593 6.866a6.517 6.517 0 001.002 3.162c1.123 1.784 3.11 3.062 5.588 3.07 3.787.011 6.785-3.132 6.593-6.897a6.33 6.33 0 00-.18-1.21 6.592 6.592 0 00-6.41-4.991z" fill="url(#paint1_linear_4497_5993)"/><path d="M31.524 39.782c-1.795-2.094-3.025-4.437-3.705-7.042.608.515 1.201 1.061 1.838 1.55 2.368 1.82 5.06 2.975 7.935 3.732 1.673.44 3.376.705 5.105.829a30.02 30.02 0 004.732-.02c3.751-.319 7.316-1.292 10.606-3.144a17.104 17.104 0 003.696-2.777c.069-.068.14-.132.254-.24-.691 2.639-1.89 4.952-3.629 7.002 3.058 2.062 4.705 4.873 4.642 8.566-.046 2.683-1.117 4.94-3.052 6.8-4.003 3.85-11.288 3.681-14.942-1.772-1.735 2.482-4.073 4.011-7.117 4.345-3.051.334-5.723-.567-7.924-2.69-2.242-2.16-3.215-4.853-2.908-7.917.31-3.067 1.849-5.47 4.469-7.221zm5.26 1.65c-3.642-.023-6.72 2.98-6.596 6.776 0 .04.003.078.005.117a6.56 6.56 0 006.59 6.203c3.756.011 6.78-3.102 6.59-6.893 0-.011 0-.022-.002-.033a6.336 6.336 0 00-.18-1.188c-.694-2.782-3.23-4.99-6.407-4.982zm16.452-.002c-3.708-.015-6.768 3.076-6.593 6.866a6.517 6.517 0 001.002 3.162c1.123 1.784 3.11 3.062 5.588 3.07 3.787.011 6.785-3.132 6.593-6.897a6.33 6.33 0 00-.18-1.21 6.592 6.592 0 00-6.41-4.991z" fill="#fff" fill-opacity=".5"/><path d="M32.15 29.901l1.513-.494c3.427-1.127 6.853-2.256 10.283-3.376a.808.808 0 01.472.009c3.864 1.26 7.724 2.528 11.584 3.796.045.014.086.04.161.077L52.804 31.2c-2.821 1.079-5.642 2.159-8.468 3.227-.126.047-.306.022-.44-.028-1.564-.59-3.122-1.191-4.681-1.788l-6.642-2.542-.424-.168z" fill="url(#paint2_linear_4497_5993)"/><path d="M32.15 29.901l1.513-.494c3.427-1.127 6.853-2.256 10.283-3.376a.808.808 0 01.472.009c3.864 1.26 7.724 2.528 11.584 3.796.045.014.086.04.161.077L52.804 31.2c-2.821 1.079-5.642 2.159-8.468 3.227-.126.047-.306.022-.44-.028-1.564-.59-3.122-1.191-4.681-1.788l-6.642-2.542-.424-.168z" fill="#fff" fill-opacity=".5"/><path d="M50.856 32.892v4.416c-4.48.91-8.927.8-13.367-.344v-4.082l1.427.543c1.66.635 3.322 1.267 4.98 1.907a.706.706 0 00.556-.004c2.045-.79 4.096-1.57 6.147-2.353.07-.028.144-.048.257-.083z" fill="url(#paint3_linear_4497_5993)"/><path d="M50.856 32.892v4.416c-4.48.91-8.927.8-13.367-.344v-4.082l1.427.543c1.66.635 3.322 1.267 4.98 1.907a.706.706 0 00.556-.004c2.045-.79 4.096-1.57 6.147-2.353.07-.028.144-.048.257-.083z" fill="#fff" fill-opacity=".5"/><path d="M45.008 55.037c.944 1.006 1.862 1.98 2.77 2.963.052.056.071.204.034.268-.92 1.569-1.852 3.13-2.803 4.732l-1.063-1.788c-.569-.958-1.14-1.914-1.7-2.877-.05-.086-.07-.262-.019-.318.912-.992 1.837-1.974 2.78-2.98z" fill="url(#paint4_linear_4497_5993)"/><path d="M45.008 55.037c.944 1.006 1.862 1.98 2.77 2.963.052.056.071.204.034.268-.92 1.569-1.852 3.13-2.803 4.732l-1.063-1.788c-.569-.958-1.14-1.914-1.7-2.877-.05-.086-.07-.262-.019-.318.912-.992 1.837-1.974 2.78-2.98z" fill="#fff" fill-opacity=".5"/><path d="M34.168 46.837c.648.328 1.1.32 1.431-.014.375-.38.383-.775.029-1.42 1.035-.54 2.56-.25 3.403.812a2.84 2.84 0 01-.13 3.674c-.947 1.053-2.482 1.25-3.742.43-1.097-.716-1.566-2.156-.991-3.482z" fill="url(#paint5_linear_4497_5993)"/><path d="M34.168 46.837c.648.328 1.1.32 1.431-.014.375-.38.383-.775.029-1.42 1.035-.54 2.56-.25 3.403.812a2.84 2.84 0 01-.13 3.674c-.947 1.053-2.482 1.25-3.742.43-1.097-.716-1.566-2.156-.991-3.482z" fill="#fff" fill-opacity=".5"/><path d="M54.399 45.395l-.001.002c-.193.325-.281.598-.267.839.013.213.107.4.28.576.351.354.828.364 1.41.028.157.262.254.6.275.972a2.866 2.866 0 01-.996 2.329c-1.056.905-2.72.896-3.754-.022a2.9 2.9 0 01-.976-2.063 2.734 2.734 0 01.457-1.623c.791-1.184 2.329-1.636 3.572-1.038z" fill="url(#paint6_linear_4497_5993)"/><path d="M54.399 45.395l-.001.002c-.193.325-.281.598-.267.839.013.213.107.4.28.576.351.354.828.364 1.41.028.157.262.254.6.275.972a2.866 2.866 0 01-.996 2.329c-1.056.905-2.72.896-3.754-.022a2.9 2.9 0 01-.976-2.063 2.734 2.734 0 01.457-1.623c.791-1.184 2.329-1.636 3.572-1.038z" fill="#fff" fill-opacity=".5"/><path fill-rule="evenodd" clip-rule="evenodd" d="M47.645 51.458c1.123 1.785 3.11 3.064 5.588 3.071a6.559 6.559 0 006.594-6.896 6.34 6.34 0 00-.001-.002c.192 3.765-2.806 6.908-6.593 6.897-2.477-.008-4.465-1.286-5.588-3.07zm3.182-5.023c.792-1.184 2.328-1.634 3.57-1.038l.002-.002c-1.243-.598-2.78-.146-3.572 1.038a2.734 2.734 0 000 .002zm5.273 1.553c0-.059 0-.118-.004-.176a2.147 2.147 0 00-.275-.972c-.582.336-1.059.326-1.41-.028-.173-.175-.267-.363-.28-.576.012.214.106.403.28.579.351.355.828.364 1.41.027.181.303.283.708.28 1.147z" fill="url(#paint7_linear_4497_5993)"/><path fill-rule="evenodd" clip-rule="evenodd" d="M47.645 51.458c1.123 1.785 3.11 3.064 5.588 3.071a6.559 6.559 0 006.594-6.896 6.34 6.34 0 00-.001-.002c.192 3.765-2.806 6.908-6.593 6.897-2.477-.008-4.465-1.286-5.588-3.07zm3.182-5.023c.792-1.184 2.328-1.634 3.57-1.038l.002-.002c-1.243-.598-2.78-.146-3.572 1.038a2.734 2.734 0 000 .002zm5.273 1.553c0-.059 0-.118-.004-.176a2.147 2.147 0 00-.275-.972c-.582.336-1.059.326-1.41-.028-.173-.175-.267-.363-.28-.576.012.214.106.403.28.579.351.355.828.364 1.41.027.181.303.283.708.28 1.147z" fill="#fff" fill-opacity=".5"/><path fill-rule="evenodd" clip-rule="evenodd" d="M30.188 48.208l.005.12a6.56 6.56 0 006.59 6.202c3.756.011 6.78-3.102 6.59-6.893 0-.012 0-.024-.002-.035l.002.033c.19 3.791-2.834 6.904-6.59 6.893a6.56 6.56 0 01-6.595-6.32z" fill="url(#paint8_linear_4497_5993)"/><path fill-rule="evenodd" clip-rule="evenodd" d="M30.188 48.208l.005.12a6.56 6.56 0 006.59 6.202c3.756.011 6.78-3.102 6.59-6.893 0-.012 0-.024-.002-.035l.002.033c.19 3.791-2.834 6.904-6.59 6.893a6.56 6.56 0 01-6.595-6.32z" fill="#fff" fill-opacity=".5"/></g><defs><linearGradient id="paint0_linear_4497_5993" x1="64" y1="4" x2="13.5" y2="81.5" gradientUnits="userSpaceOnUse"><stop stop-color="#C0A75A"/><stop offset="1" stop-color="#CCBF8E"/></linearGradient><linearGradient id="paint1_linear_4497_5993" x1="52.6" y1="27.644" x2="31.614" y2="58.98" gradientUnits="userSpaceOnUse"><stop stop-color="#C0A75A"/><stop offset="1" stop-color="#CCBF8E"/></linearGradient><linearGradient id="paint2_linear_4497_5993" x1="52.6" y1="27.644" x2="31.614" y2="58.98" gradientUnits="userSpaceOnUse"><stop stop-color="#C0A75A"/><stop offset="1" stop-color="#CCBF8E"/></linearGradient><linearGradient id="paint3_linear_4497_5993" x1="52.6" y1="27.644" x2="31.614" y2="58.98" gradientUnits="userSpaceOnUse"><stop stop-color="#C0A75A"/><stop offset="1" stop-color="#CCBF8E"/></linearGradient><linearGradient id="paint4_linear_4497_5993" x1="52.6" y1="27.644" x2="31.614" y2="58.98" gradientUnits="userSpaceOnUse"><stop stop-color="#C0A75A"/><stop offset="1" stop-color="#CCBF8E"/></linearGradient><linearGradient id="paint5_linear_4497_5993" x1="52.6" y1="27.644" x2="31.614" y2="58.98" gradientUnits="userSpaceOnUse"><stop stop-color="#C0A75A"/><stop offset="1" stop-color="#CCBF8E"/></linearGradient><linearGradient id="paint6_linear_4497_5993" x1="52.6" y1="27.644" x2="31.614" y2="58.98" gradientUnits="userSpaceOnUse"><stop stop-color="#C0A75A"/><stop offset="1" stop-color="#CCBF8E"/></linearGradient><linearGradient id="paint7_linear_4497_5993" x1="52.6" y1="27.644" x2="31.614" y2="58.98" gradientUnits="userSpaceOnUse"><stop stop-color="#C0A75A"/><stop offset="1" stop-color="#CCBF8E"/></linearGradient><linearGradient id="paint8_linear_4497_5993" x1="52.6" y1="27.644" x2="31.614" y2="58.98" gradientUnits="userSpaceOnUse"><stop stop-color="#C0A75A"/><stop offset="1" stop-color="#CCBF8E"/></linearGradient><clipPath id="clip0_4497_5993"><path fill="#fff" d="M0 0h90v90H0z"/></clipPath><clipPath id="clip1_4497_5993"><path fill="#fff" transform="translate(5 5)" d="M0 0h80v80H0z"/></clipPath></defs></svg>