<svg width="120" height="120" fill="none" xmlns="http://www.w3.org/2000/svg"><g clip-path="url(#clip0_4233_9129)"><circle cx="60" cy="60" r="59.667" fill="#262626" stroke="#fff" stroke-width=".667"/><circle cx="60" cy="60" r="39.667" stroke="#fff" stroke-width=".667"/><g clip-path="url(#clip1_4233_9129)" fill="#fff"><path d="M7.872 52.69l-.283 2.646 1.355.27c4.572.926 5.049 1.958 4.78 3.094l-.878-.104c.104-.509-.06-1.42-4.736-2.258l-1.444-.254.462-4.366 7.252.777-.09.882-6.418-.687zm7.548-5.025l-6.879-2.423.298-.837 5.51 1.944-4.036-6.145.253-.748 6.88 2.422-.298.838-5.51-1.944 4.036 6.145-.253.748zM13.515 33.37l.491-.747 4.646-.21L17 28.124l.461-.703 6.076 4.067-.492.747-4.914-3.289 1.579 4.187-.075.12-4.452.179 4.884 3.274-.491.748-6.076-4.067.015-.015zm13.238-5.532l-4.9-5.428.656-.598 3.916 4.351-.64-7.326.58-.523 4.9 5.427-.655.598-3.917-4.35.64 7.325-.58.524zm4.111-12.782l5.198-2.99.416.732-2.218 1.271 3.216 5.637-.774.448-3.217-5.636-2.218 1.27-.417-.732h.014zm12.463 1.763L41.168 9.82l.849-.269 1.727 5.592 2.502-6.908.744-.239 2.16 6.998-.85.269-1.726-5.592-2.502 6.907-.745.24zm10.663-2.646l-.625-7.296c.402-.03 1.445-.15 1.906-.18 2.07-.179 2.785.898 2.89 2.034.103 1.181-.641 2.362-2.428 2.512-.298.03-.73.045-1.087.045l.238 2.81-.878.075h-.015zm.328-6.549l.239 2.811c.357 0 .7 0 1.057-.045 1.072-.09 1.668-.702 1.593-1.614-.074-.867-.64-1.376-1.787-1.271-.298.03-.76.075-1.102.12zm12.657-.763c2.1.284 3.485 2.019 3.202 4.232-.283 2.153-2.085 3.528-4.185 3.244-2.1-.284-3.484-2.018-3.202-4.231.283-2.108 2.026-3.529 4.185-3.245zm-.879 6.639c1.653.224 2.92-.897 3.142-2.542.224-1.69-.834-3.065-2.382-3.274-1.579-.21-2.919.852-3.142 2.542-.224 1.644.834 3.065 2.382 3.274zm10.305-4.441c.388.134 1.251.418 1.892.657 1.638.599 1.935 1.556 1.578 2.512-.313.868-1.027 1.182-1.757 1.167.804.463 1.161 1.226.819 2.168-.506 1.39-1.802 1.6-3.217 1.076a62.84 62.84 0 01-1.831-.717l2.501-6.863h.015zm-.536 4.037l-.849 2.332c.224.105.656.284 1.043.434 1.013.373 1.757.18 2.07-.673.268-.733-.164-1.33-1.147-1.69l-1.102-.403h-.015zm1.073-2.96l-.805 2.227 1.102.404c.73.269 1.475.09 1.743-.658.268-.718-.075-1.271-.983-1.615-.358-.135-.79-.27-1.043-.344l-.014-.015zm11.169 4.365l.64.404-1.265 7.91-.804-.51.387-2.377-2.814-1.779-1.966 1.376-.76-.479 6.567-4.545h.015zm-3.097 3.14l2.219 1.405.55-3.349-2.769 1.944zm11.36 8.883l-2.829-2.856-2.337 2.347-.626-.628 5.167-5.173.626.628-2.234 2.243 2.83 2.855 2.233-2.242.626.628-5.168 5.173-.625-.628 2.338-2.347zm6.702 9.268l-2.114-3.424-2.815 1.75-.461-.763 6.209-3.842.462.762-2.68 1.66 2.114 3.424 2.681-1.66.461.763-6.21 3.842-.461-.762 2.814-1.75zm7.759 7.658c.655 2.018-.298 4.022-2.412 4.71-2.055.672-4.065-.36-4.721-2.378-.655-2.018.298-4.022 2.413-4.725 2.01-.658 4.05.314 4.72 2.392zm-6.343 2.078c.521 1.585 2.069 2.258 3.633 1.75 1.608-.524 2.398-2.064 1.906-3.56-.491-1.51-2.025-2.272-3.633-1.749-1.579.509-2.398 2.079-1.906 3.559zm8.442 7.401l.402 4.111-.834.09-.312-3.23-2.353.225.283 2.916-.834.09-.283-2.916-2.427.239.327 3.334-.834.075-.417-4.217 7.267-.717h.015zM25.816 99.878l4.438-5.817.7.539-3.544 4.65 7.073-1.944.626.478-4.438 5.817-.7-.538 3.544-4.65-7.058 1.943-.626-.478h-.015zm10.112 5.681l.7-.329c.193.703.744 1.361 1.28 1.615.864.404 1.713.269 2.1-.568.313-.658.03-1.301-.79-1.689l-.759-.359.358-.763.714.329c.551.269 1.31.06 1.609-.598.342-.718 0-1.331-.685-1.645-.655-.314-1.221-.254-1.847.03l-.223-.747c.715-.374 1.653-.404 2.502 0 1.146.538 1.623 1.54 1.087 2.661a1.918 1.918 0 01-1.668 1.062v.03c.715.523.819 1.375.461 2.138-.566 1.226-1.965 1.45-3.171.882-1.013-.479-1.564-1.361-1.668-2.064v.015zm8.816 3.977l.76.179c.372-.299 1.459-1.675 2.293-4.62l.402-1.406 4.184.972-1.444 6.325.968.224-.492 2.138-.804-.194.298-1.331-5.525-1.271-.297 1.331-.82-.194.492-2.138-.015-.015zm1.713.403l3.603.838 1.266-5.503-2.487-.568-.387 1.256c-.744 2.422-1.653 3.723-1.995 3.992v-.015zm13.013-4.784h.76l3.023 7.431H62.3l-.909-2.242-3.32-.045-.968 2.213h-.894l3.246-7.342.015-.015zm-1.027 4.291l2.62.045-1.265-3.155-1.37 3.11h.015zm14.327-1.883l-3.916.882.73 3.229-.864.195-1.609-7.132.864-.195.7 3.095 3.916-.882-.7-3.095.864-.194 1.608 7.132-.863.194-.73-3.229zm7.636.882l-3.246-6.564.79-.389 2.59 5.248 1.37-7.221.7-.344 3.247 6.564-.79.388-2.59-5.248-1.37 7.222-.7.344zm6.153-11.946l3.216-2.587.521.658-2.516 2.034 1.474 1.838 2.278-1.838.522.657-2.279 1.84 1.519 1.913 2.606-2.093.521.658-3.29 2.646-4.572-5.711v-.015z"/></g><path d="M42.031 53.043c-2.392-2.794-4.032-5.917-4.94-9.39.811.686 1.602 1.415 2.452 2.068 3.157 2.425 6.746 3.966 10.58 4.974 2.23.587 4.501.94 6.806 1.105 2.106.151 4.21.155 6.31-.025 5.001-.426 9.755-1.724 14.141-4.194a22.808 22.808 0 004.928-3.701c.092-.091.188-.177.34-.321-.923 3.519-2.521 6.603-4.84 9.336 4.077 2.75 6.274 6.497 6.19 11.422-.062 3.577-1.49 6.587-4.07 9.067-5.337 5.132-15.05 4.908-19.922-2.364-2.314 3.31-5.431 5.35-9.49 5.794-4.069.446-7.631-.756-10.565-3.587-2.99-2.88-4.287-6.47-3.877-10.556.411-4.089 2.464-7.293 5.957-9.628zm7.014 2.2c-4.855-.032-8.959 3.972-8.795 9.034l.007.156a8.747 8.747 0 008.787 8.27c5.008.015 9.04-4.136 8.787-9.19l-.002-.045a8.452 8.452 0 00-.24-1.583c-.926-3.71-4.307-6.653-8.544-6.642zm21.937-.004c-4.945-.02-9.024 4.101-8.791 9.155a8.69 8.69 0 001.336 4.216c1.498 2.378 4.147 4.082 7.45 4.093 5.05.015 9.047-4.176 8.79-9.196a8.45 8.45 0 00-.24-1.614c-.917-3.687-4.262-6.652-8.545-6.654z" fill="#fff" fill-opacity=".39"/><path d="M42.866 39.868c.72-.236 1.37-.447 2.018-.66 4.57-1.502 9.137-3.008 13.711-4.5.19-.062.437-.052.63.011a7732.98 7732.98 0 0115.445 5.062c.06.019.115.054.214.102L70.406 41.6c-3.763 1.438-7.524 2.878-11.29 4.302-.17.063-.41.03-.588-.038-2.085-.785-4.163-1.587-6.242-2.383l-8.855-3.39-.565-.223z" fill="#fff" fill-opacity=".39"/><path d="M67.808 43.855v5.888c-5.972 1.214-11.903 1.066-17.823-.458v-5.444c.655.25 1.279.486 1.903.725 2.214.847 4.429 1.69 6.64 2.543a.94.94 0 00.74-.005c2.728-1.055 5.463-2.095 8.197-3.137.093-.038.192-.065.343-.112zM60.01 73.382c1.259 1.34 2.483 2.64 3.695 3.95.069.075.094.273.045.359-1.229 2.09-2.47 4.173-3.739 6.308-.487-.82-.953-1.601-1.416-2.383-.758-1.278-1.52-2.553-2.267-3.837-.066-.114-.094-.35-.025-.424 1.215-1.323 2.449-2.631 3.707-3.973zM45.557 62.449c.864.438 1.468.427 1.908-.02.5-.505.511-1.033.039-1.892 1.38-.72 3.414-.334 4.538 1.082 1.148 1.447 1.08 3.504-.174 4.9-1.262 1.404-3.31 1.665-4.989.571-1.464-.954-2.088-2.873-1.322-4.641zm26.975-1.923l-.001.002c-.258.434-.375.798-.356 1.119.017.284.142.535.374.769.467.472 1.103.484 1.879.037.21.35.338.8.367 1.295a3.82 3.82 0 01-1.328 3.105c-1.409 1.207-3.627 1.196-5.006-.028a3.867 3.867 0 01-1.3-2.751 3.646 3.646 0 01.609-2.164c1.055-1.579 3.104-2.181 4.762-1.384z" fill="#fff" fill-opacity=".39"/><path fill-rule="evenodd" clip-rule="evenodd" d="M63.527 68.61c1.497 2.38 4.147 4.085 7.45 4.095 5.051.017 9.048-4.174 8.792-9.195a8.447 8.447 0 00-.001-.003c.256 5.02-3.74 9.211-8.791 9.196-3.303-.01-5.952-1.715-7.45-4.093zm4.243-6.697c1.056-1.578 3.103-2.18 4.76-1.385l.002-.002c-1.658-.797-3.707-.195-4.762 1.384a3.646 3.646 0 000 .003zm7.03 2.071c.001-.08 0-.158-.005-.236-.029-.494-.158-.946-.367-1.295-.776.447-1.412.435-1.88-.037-.231-.234-.356-.485-.373-.77.016.287.141.538.374.773.467.473 1.103.486 1.879.037.242.403.377.943.373 1.528zm-34.55.293l.007.16a8.747 8.747 0 008.787 8.269c5.008.015 9.04-4.136 8.787-9.19a6.99 6.99 0 00-.002-.048l.002.044c.252 5.055-3.779 9.206-8.787 9.191a8.747 8.747 0 01-8.794-8.426z" fill="#fff" fill-opacity=".39"/></g><defs><clipPath id="clip0_4233_9129"><path fill="#fff" d="M0 0h120v120H0z"/></clipPath><clipPath id="clip1_4233_9129"><path fill="#fff" transform="translate(6.666 6.667)" d="M0 0h106.667v106.667H0z"/></clipPath></defs></svg>