<svg width="17" height="22" fill="none" xmlns="http://www.w3.org/2000/svg"><path d="M6.198 12.01l.9-2.927-2.345-1.695h2.9l.915-3.007.895 3.007h2.92L10.05 9.083l.88 2.928L8.568 10.2l-2.37 1.81zm-3.252 9.255V13.85a7.243 7.243 0 01-1.713-2.534 7.99 7.99 0 01-.58-3.01c0-2.212.766-4.084 2.299-5.616C4.484 1.158 6.356.392 8.568.392c2.212 0 4.084.766 5.616 2.298s2.298 3.404 2.298 5.616a7.99 7.99 0 01-.58 3.01 7.244 7.244 0 01-1.713 2.534v7.415l-5.621-1.692-5.622 1.692zm5.62-6.002c1.94 0 3.585-.674 4.935-2.022 1.35-1.348 2.024-2.993 2.024-4.933s-.674-3.586-2.022-4.936c-1.349-1.349-2.993-2.024-4.934-2.024-1.94 0-3.585.675-4.935 2.023C2.284 4.719 1.61 6.364 1.61 8.304s.674 3.586 2.022 4.935c1.349 1.35 2.993 2.024 4.934 2.024zM3.903 19.96l4.665-1.386 4.664 1.386v-5.304a7.164 7.164 0 01-2.198 1.172c-.8.262-1.623.393-2.466.393a7.878 7.878 0 01-2.467-.393 7.164 7.164 0 01-2.198-1.172v5.304z" fill="#B88C5E"/></svg>