<svg width="40" height="40" fill="none" xmlns="http://www.w3.org/2000/svg"><mask id="a" style="mask-type:alpha" maskUnits="userSpaceOnUse" x="0" y="0" width="40" height="40"><path fill="#D9D9D9" d="M0 0h40v40H0z"/></mask><g mask="url(#a)"><path d="M20 35.833c-2.179 0-4.23-.416-6.152-1.247a16.06 16.06 0 01-5.036-3.397 16.054 16.054 0 01-3.398-5.035c-.831-1.923-1.247-3.973-1.247-6.152 0-2.19.416-4.248 1.247-6.175.83-1.927 1.963-3.603 3.397-5.028a16.18 16.18 0 015.035-3.386c1.923-.831 3.973-1.247 6.151-1.247 2.19 0 4.249.416 6.176 1.247 1.927.831 3.603 1.96 5.028 3.384 1.425 1.425 2.554 3.101 3.386 5.027.831 1.927 1.247 3.985 1.247 6.175 0 .78-.055 1.55-.164 2.31-.109.76-.272 1.502-.488 2.227a4.911 4.911 0 00-.862-.644 4.028 4.028 0 00-1.022-.421c.15-.556.26-1.12.333-1.693.072-.573.108-1.166.108-1.779 0-3.827-1.332-7.074-3.998-9.74C27.075 7.593 23.828 6.26 20 6.26c-3.817 0-7.06 1.333-9.732 3.999-2.672 2.666-4.008 5.913-4.008 9.74 0 3.817 1.336 7.06 4.008 9.732 2.671 2.672 5.915 4.008 9.731 4.008a13.34 13.34 0 004.423-.73 14.202 14.202 0 003.83-2.021c.221.28.47.537.748.77.277.235.578.428.901.579a16.07 16.07 0 01-4.56 2.571c-1.677.617-3.458.925-5.342.925zm12.047-6.267c-.406 0-.752-.143-1.037-.427a1.408 1.408 0 01-.428-1.036c0-.414.143-.761.427-1.043a1.42 1.42 0 011.036-.422c.407 0 .753.14 1.037.421.285.281.428.628.428 1.042 0 .407-.142.752-.426 1.037a1.41 1.41 0 01-1.037.428zm-5.948-1.926l-7.084-7.214v-9.025h2.094v8.17l6.515 6.544L26.1 27.64z" fill="#1C1B1F"/></g></svg>