<svg width="27" height="27" fill="none" xmlns="http://www.w3.org/2000/svg"><path d="M5.282 20.777a15.005 15.005 0 013.82-2.055c1.377-.502 2.843-.753 4.398-.753 1.555 0 3.021.25 4.399.753a15.005 15.005 0 013.82 2.055 10.84 10.84 0 002.031-3.263c.5-1.236.75-2.574.75-4.014 0-3.048-1.071-5.643-3.214-7.786S16.548 2.5 13.5 2.5c-3.048 0-5.643 1.071-7.786 3.214S2.5 10.452 2.5 13.5c0 1.44.25 2.778.75 4.014a10.84 10.84 0 002.032 3.263zM13.5 14.53c-1.255 0-2.314-.43-3.176-1.292-.862-.862-1.293-1.92-1.293-3.176 0-1.256.431-2.314 1.293-3.176.862-.862 1.92-1.293 3.176-1.293 1.255 0 2.314.43 3.176 1.292.862.862 1.293 1.92 1.293 3.176 0 1.256-.431 2.314-1.293 3.176-.862.862-1.92 1.293-3.176 1.293zm0 12.031c-1.814 0-3.515-.34-5.105-1.023a13.115 13.115 0 01-4.147-2.787 13.114 13.114 0 01-2.787-4.147C.779 17.015.437 15.314.437 13.5s.342-3.515 1.024-5.105a13.114 13.114 0 012.787-4.147 13.114 13.114 0 014.147-2.787C9.985.779 11.686.437 13.5.437c1.814 0 3.515.342 5.105 1.024a13.114 13.114 0 014.147 2.787 13.115 13.115 0 012.787 4.147c.682 1.59 1.023 3.291 1.023 5.105 0 1.814-.34 3.515-1.023 5.105a13.114 13.114 0 01-2.787 4.147 13.114 13.114 0 01-4.147 2.787c-1.59.682-3.291 1.023-5.105 1.023zm0-2.062c1.24 0 2.437-.2 3.59-.599a10.22 10.22 0 003.068-1.675 10.449 10.449 0 00-3.029-1.616c-1.125-.386-2.335-.579-3.629-.579s-2.506.191-3.636.573a9.97 9.97 0 00-3.022 1.622A10.188 10.188 0 009.911 23.9c1.152.4 2.348.599 3.589.599zm0-12.031c.684 0 1.256-.23 1.716-.69.46-.46.69-1.032.69-1.716 0-.685-.23-1.257-.69-1.716-.46-.46-1.032-.69-1.716-.69-.684 0-1.256.23-1.716.69-.46.46-.69 1.031-.69 1.716 0 .684.23 1.256.69 1.715.46.46 1.032.69 1.716.69z" fill="#111"/></svg>